<svg xmlns="http://www.w3.org/2000/svg" viewBox="0 0 143 251"><defs><style>.cls-1{fill:#106810;}.cls-2{fill:#fff;}</style></defs><g id="圖層_2" data-name="圖層 2"><g id="圖層_1-2" data-name="圖層 1"><rect class="cls-1" y="26" width="143" height="207"/><path class="cls-2" d="M139.73,149.13a39.42,39.42,0,0,1-5.21-3.24,3.83,3.83,0,0,1-.88-.89,3,3,0,0,1-.18-1.2c0-3.45,0-6.9,0-10.35q0-8.37-.35-9.41c-2.57-.4-4-.43-4.13-.09q-1.23,2.23-3.51,6.85T122,137.68a1,1,0,0,1-1.38.6,47.68,47.68,0,0,1-5.73-2.82,39.25,39.25,0,0,1-5-3,1,1,0,0,1-.36-1.4q1.76-3.23,5.63-9.55c2.57-4.22,4.46-7.41,5.64-9.57q1.89-3.47,5.38-10.56t5.38-10.55a.65.65,0,0,1,1-.31c.61.34,1.53.87,2.74,1.61s2.12,1.28,2.73,1.62,1.6.83,2.89,1.45L143,96.22V20.29A20.28,20.28,0,0,0,122.71,0H20.29A20.28,20.28,0,0,0,0,20.29v11a25.24,25.24,0,0,1,5.56-2.88,21.1,21.1,0,0,1,18.25,1.38Q33.47,35,35.71,44a2.09,2.09,0,0,1,0,1.49c-.21.38-1.66,1.4-4.37,3.07a27.56,27.56,0,0,1-4.84,2.66.94.94,0,0,1-.73-.09,8.55,8.55,0,0,1-.83-2,18.35,18.35,0,0,0-1.94-4,12.21,12.21,0,0,0-4.24-3.86,9.7,9.7,0,0,0-8.8-.55A13.29,13.29,0,0,0,3.4,46.91a13.59,13.59,0,0,0-1.74,8.92A9.65,9.65,0,0,0,6.84,63a12.8,12.8,0,0,0,5.54,1.56,17.6,17.6,0,0,0,4.24-.4,9.27,9.27,0,0,1,2.08-.33,1,1,0,0,1,.42.65c.12.54.3,2.25.55,5.15a24.26,24.26,0,0,1,.19,4.82,2.5,2.5,0,0,1-1.31.91Q9.49,78.9.4,73.92c-.14-.07-.26-.16-.4-.24v157A20.28,20.28,0,0,0,20.29,251H122.71A20.28,20.28,0,0,0,143,230.71v-79.9C142.17,150.42,141.08,149.87,139.73,149.13ZM65.45,79.52q1.76-3.19,5-9.69t5-9.68a.67.67,0,0,1,1-.28c.62.34,1.53.88,2.74,1.61S81.4,62.76,82,63.1s1.54.8,2.78,1.4,2.16,1.06,2.77,1.4.75.69.51,1.13q-1.74,3.19-5.58,9.38t-5.57,9.38Q75,89.32,71.32,96.47t-5.6,10.68c-.22.4-.45.6-.68.6a6.5,6.5,0,0,1-.84-.3,52.54,52.54,0,0,1-5.32-2.6,44.27,44.27,0,0,1-5.41-3.27,1,1,0,0,1-.36-1.4c-.17.32.87-1.38,3.14-5.1Q63.38,83.31,65.45,79.52Zm-41,6.35c-.91-.46-2.17-1.21-3.78-2.22a1,1,0,0,1-.36-1.39q1.77-3.26,5.42-9.68t5.43-9.68q1.89-3.45,5.45-10.47T42.08,42c.24-.44.66-.5,1.25-.17s1.47.84,2.62,1.55,2,1.22,2.59,1.53,1.65.86,3,1.49,2.32,1.14,3,1.5c.3.16.33.42.11.79l-.25.37q-3.42,5.41-10,16.4L40,73.28c-1.39,2.54-2.4,4.41-3,5.59l-.33.75a.56.56,0,0,0,.2.69l.78.42q2.67,1.47,8.18,4.11C49.51,86.6,52.23,88,54,89c.54.29.68.67.43,1.13a50.87,50.87,0,0,1-5.55,8.38c-.38.47-.76.66-1.13.59a7.86,7.86,0,0,1-1.26-.61c-1.7-.94-3.91-2.19-6.61-3.77l-6.59-3.8ZM77.47,214l-8.2,1.77c-.45.1-.73-.15-.86-.75q-.55-2.57-1.5-7.75c-.63-3.45-1.13-6-1.5-7.75-.11-.49-.23-.74-.38-.75a79.74,79.74,0,0,0-1.4,8.54c-.45,3.27-.91,6.52-1.37,9.77a1.05,1.05,0,0,1-.43.81,8.13,8.13,0,0,1-.92.22c-.8.18-1.32.11-1.55-.19q-1.84-2.53-5-7.44-3.41-5.18-5-7.47a.94.94,0,0,0-.27-.23,1.23,1.23,0,0,0,0,.77c.36,1.67.93,4.15,1.73,7.46s1.38,5.8,1.74,7.46c.13.6,0,.94-.45,1l-7.74,1.67c-.3.07-.51.05-.6,0a1.25,1.25,0,0,1-.23-.55q-.6-2.78-1.56-8.39t-1.56-8.4q-.65-2.94-2.64-11-.48-2.11-1.57-6.25l-.11-.42c-.09-.34.19-.58.86-.72.85-.19,2.11-.49,3.8-.92s3-.73,3.8-.92c.17,0,.48.27,1,.92l10.29,14.85c.72,1,1.24,1.47,1.56,1.4s.4-.75.68-2.15q1.18-5.85,3.43-17.62c.12-.71.33-1.11.64-1.17s1.13-.22,2-.37,1.6-.26,2.07-.36,1-.26,1.74-.51,1.36-.43,1.74-.52.74.06.83.46c.44,2,1,5,1.75,9s1.31,7,1.75,9q.6,2.78,2,8.28c.94,3.67,1.61,6.43,2,8.26C78.08,213.6,77.91,213.91,77.47,214ZM105,207.94a.86.86,0,0,1-.66.65,5.29,5.29,0,0,1-.71.07c-1.16.07-4.47.7-9.91,1.88l-5.31,1.13-5.28,1.11a.69.69,0,0,1-.93-.57q-.62-2.85-1.56-8.63T79.05,195q-.63-2.91-2.62-10.76-.51-2-1.58-6l-.1-.36c-.11-.38,0-.62.46-.71q1.71-.36,5.17-1c2.3-.43,4-.77,5.17-1s2.82-.65,5.07-1.21,3.94-1,5.07-1.2a1.24,1.24,0,0,1,1.61.69c.16.37.53,1.53,1.12,3.47s.93,3.13,1,3.55,0,.57-.35.64l-.49.08c-4.19.51-7.92,1.13-11.19,1.83-.82.18-1.27.5-1.37,1a9.83,9.83,0,0,0,.31,2,3.91,3.91,0,0,0,1,2.19,1.91,1.91,0,0,0,1.61.16c.16,0,.46-.11.9-.23s.81-.22,1.1-.28q2.92-.63,5.86-1.46l1.25-.4a9.44,9.44,0,0,1,1.23-.37.49.49,0,0,1,.66.41s0,0,0,.05,0,0,0-.05.13,1.42.45,4q.25,2.07.69,4.11c.08.34-.11.56-.56.66l-2.13.19c-.91.09-2.92.48-6.06,1.15l-2.45.54c-.63.13-1,.38-1,.75,0,.08.11.61.32,1.58a8.54,8.54,0,0,0,.77,2.44q.6.89,3.21.51l3.38-.73c.82-.18,2-.52,3.59-1s2.77-.85,3.58-1c.34-.08.57.19.7.8a36.43,36.43,0,0,1,.48,4.11A17,17,0,0,1,105,207.94Zm3.18-83.58Q99.1,127.89,90,122.91q-9.3-5.09-11.61-14.59-2.28-9.22,2.84-18.58A25.74,25.74,0,0,1,95.17,77.37a21.13,21.13,0,0,1,18.25,1.38Q123.08,84,125.32,93a2.06,2.06,0,0,1,0,1.48c-.21.38-1.66,1.41-4.37,3.08a27.91,27.91,0,0,1-4.84,2.65.9.9,0,0,1-.73-.08,9.31,9.31,0,0,1-.84-2,18.12,18.12,0,0,0-1.93-4,12.21,12.21,0,0,0-4.24-3.86,9.7,9.7,0,0,0-8.8-.55A13.34,13.34,0,0,0,93,95.9a13.6,13.6,0,0,0-1.74,8.92A9.65,9.65,0,0,0,96.45,112a12.53,12.53,0,0,0,5.54,1.56,18.07,18.07,0,0,0,4.24-.39,9,9,0,0,1,2.08-.34,1,1,0,0,1,.42.66c.12.53.3,2.24.55,5.14a24.36,24.36,0,0,1,.19,4.83A2.62,2.62,0,0,1,108.16,124.36Z"/><path class="cls-2" d="M136.22,110.5q-1.41,2.56,0,3.33a8.6,8.6,0,0,0,6.57,1.08l.21-.07V99.1q-1.12,2-2.92,4.86Q137.43,108.29,136.22,110.5Z"/></g></g></svg>