<svg xmlns="http://www.w3.org/2000/svg" viewBox="0 0 144 252"><defs><style>.cls-1{fill:none;stroke:#fff;stroke-miterlimit:10;}.cls-2{fill:#fff;}</style></defs><g id="圖層_2" data-name="圖層 2"><g id="圖層_1-2" data-name="圖層 1"><path class="cls-1" d="M140.23,149.63a39.42,39.42,0,0,1-5.21-3.24,3.83,3.83,0,0,1-.88-.89,3,3,0,0,1-.18-1.2c0-3.45,0-6.9,0-10.35q0-8.37-.35-9.41c-2.57-.4-4-.43-4.13-.09q-1.23,2.23-3.51,6.85t-3.53,6.88a1,1,0,0,1-1.38.6,47.68,47.68,0,0,1-5.73-2.82,39.25,39.25,0,0,1-5-3,1,1,0,0,1-.36-1.4q1.76-3.22,5.63-9.55c2.57-4.22,4.46-7.41,5.64-9.57q1.89-3.47,5.38-10.56T132,91.29a.65.65,0,0,1,1-.31c.61.34,1.53.87,2.74,1.61s2.12,1.28,2.73,1.62,1.6.83,2.89,1.45l2.11,1.06V20.79A20.28,20.28,0,0,0,123.21.5H20.79A20.28,20.28,0,0,0,.5,20.79v11a25.24,25.24,0,0,1,5.56-2.88,21.1,21.1,0,0,1,18.25,1.38Q34,35.54,36.21,44.47a2.09,2.09,0,0,1,0,1.49c-.21.38-1.66,1.4-4.37,3.07A27.56,27.56,0,0,1,27,51.69a.94.94,0,0,1-.73-.09,8.55,8.55,0,0,1-.83-2,18.35,18.35,0,0,0-1.94-4,12.21,12.21,0,0,0-4.24-3.86,9.7,9.7,0,0,0-8.8-.55A13.29,13.29,0,0,0,3.9,47.41a13.59,13.59,0,0,0-1.74,8.92A9.65,9.65,0,0,0,7.34,63.5a12.8,12.8,0,0,0,5.54,1.56,17.6,17.6,0,0,0,4.24-.4,9.27,9.27,0,0,1,2.08-.33,1,1,0,0,1,.42.65c.12.54.3,2.25.55,5.15A24.26,24.26,0,0,1,20.36,75a2.5,2.5,0,0,1-1.31.91Q10,79.4.9,74.42c-.14-.07-.26-.16-.4-.24v157A20.28,20.28,0,0,0,20.79,251.5H123.21a20.28,20.28,0,0,0,20.29-20.29v-79.9C142.67,150.92,141.58,150.37,140.23,149.63ZM66,80q1.76-3.19,5-9.69t5-9.68a.67.67,0,0,1,1-.28c.62.34,1.53.88,2.74,1.61s2.12,1.28,2.74,1.62,1.54.8,2.78,1.4,2.16,1.06,2.77,1.4.75.69.51,1.13Q86.84,70.72,83,76.91t-5.57,9.38Q75.51,89.82,71.82,97t-5.6,10.68c-.22.4-.45.6-.68.6a6.5,6.5,0,0,1-.84-.3,52.54,52.54,0,0,1-5.32-2.6A44.27,44.27,0,0,1,54,102.08a1,1,0,0,1-.36-1.4c-.17.32.87-1.38,3.14-5.1Q63.88,83.81,66,80ZM25,86.37c-.91-.46-2.17-1.21-3.78-2.22a1,1,0,0,1-.36-1.39q1.77-3.26,5.42-9.68t5.43-9.68Q33.56,60,37.12,52.93t5.46-10.47c.24-.44.66-.5,1.25-.17s1.47.84,2.62,1.55,2,1.22,2.59,1.53,1.65.86,3,1.49,2.32,1.14,3,1.5c.3.16.33.42.11.79l-.25.37q-3.42,5.41-10,16.4l-4.33,7.86c-1.39,2.54-2.4,4.41-3,5.59l-.33.75a.56.56,0,0,0,.2.69l.78.42q2.67,1.47,8.18,4.11c3.68,1.76,6.4,3.13,8.19,4.11.54.29.68.67.43,1.13A50.87,50.87,0,0,1,49.4,99c-.38.47-.76.66-1.13.59A7.86,7.86,0,0,1,47,98.94c-1.7-.94-3.91-2.19-6.61-3.77l-6.59-3.8ZM78,214.51l-8.2,1.77c-.45.1-.73-.15-.86-.75q-.55-2.57-1.5-7.75c-.63-3.45-1.13-6-1.5-7.75-.11-.49-.23-.74-.38-.75a79.74,79.74,0,0,0-1.4,8.54c-.45,3.27-.91,6.52-1.37,9.77a1.05,1.05,0,0,1-.43.81,8.13,8.13,0,0,1-.92.22c-.8.18-1.32.11-1.55-.19q-1.84-2.53-5-7.44-3.41-5.18-5-7.47a.94.94,0,0,0-.27-.23,1.23,1.23,0,0,0,0,.77c.36,1.67.93,4.15,1.73,7.46s1.38,5.8,1.74,7.46c.13.6,0,.94-.45,1l-7.74,1.67c-.3.07-.51.05-.6,0a1.25,1.25,0,0,1-.23-.55q-.6-2.78-1.56-8.39t-1.56-8.4q-.65-2.94-2.64-11-.48-2.11-1.57-6.25l-.11-.42c-.09-.34.19-.58.86-.72.85-.19,2.11-.49,3.8-.92s3-.73,3.8-.92c.17,0,.48.27,1,.92l10.29,14.85c.72,1,1.24,1.47,1.56,1.4s.4-.75.68-2.15q1.18-5.85,3.43-17.62c.12-.71.33-1.11.64-1.17s1.13-.22,2-.37,1.6-.26,2.07-.36,1-.26,1.74-.51,1.36-.43,1.74-.52.74.06.83.46c.44,2,1,5,1.75,9s1.31,7,1.75,9q.6,2.78,2,8.28c.94,3.67,1.61,6.43,2,8.26C78.58,214.1,78.41,214.41,78,214.51Zm27.51-6.07a.86.86,0,0,1-.66.65,5.29,5.29,0,0,1-.71.07c-1.16.07-4.47.7-9.91,1.88l-5.31,1.13-5.28,1.11a.69.69,0,0,1-.93-.57q-.62-2.85-1.56-8.63t-1.57-8.63q-.63-2.91-2.62-10.76-.51-2-1.58-6l-.1-.36c-.11-.38,0-.62.46-.71q1.71-.36,5.17-1c2.3-.43,4-.77,5.17-1s2.82-.65,5.07-1.21,3.94-1,5.07-1.2a1.24,1.24,0,0,1,1.61.69c.16.37.53,1.53,1.12,3.47s.93,3.13,1,3.55,0,.57-.35.64l-.49.08c-4.19.51-7.92,1.13-11.19,1.83-.82.18-1.27.5-1.37,1a9.83,9.83,0,0,0,.31,2,3.91,3.91,0,0,0,1,2.19,1.91,1.91,0,0,0,1.61.16c.16,0,.46-.11.9-.23s.81-.22,1.1-.28q2.92-.63,5.86-1.46l1.25-.4a9.44,9.44,0,0,1,1.23-.37.49.49,0,0,1,.66.41s0,0,0,.05,0,0,0-.05.13,1.42.45,4q.25,2.07.69,4.11c.08.34-.11.56-.56.66l-2.13.19c-.91.09-2.92.48-6.06,1.15l-2.45.54c-.63.13-1,.38-1,.75,0,.08.11.61.32,1.58a8.54,8.54,0,0,0,.77,2.44q.6.89,3.21.51l3.38-.73c.82-.18,2-.52,3.59-1s2.77-.85,3.58-1c.34-.08.57.19.7.8a36.43,36.43,0,0,1,.48,4.11A17,17,0,0,1,105.48,208.44Zm3.18-83.58q-9.06,3.52-18.15-1.45-9.3-5.09-11.61-14.59-2.28-9.22,2.84-18.58A25.74,25.74,0,0,1,95.67,77.87a21.13,21.13,0,0,1,18.25,1.38q9.66,5.28,11.9,14.22a2.06,2.06,0,0,1,0,1.48c-.21.38-1.66,1.41-4.37,3.08a27.91,27.91,0,0,1-4.84,2.65.9.9,0,0,1-.73-.08,9.31,9.31,0,0,1-.84-2,18.12,18.12,0,0,0-1.93-4,12.21,12.21,0,0,0-4.24-3.86,9.7,9.7,0,0,0-8.8-.55,13.34,13.34,0,0,0-6.52,6.19,13.6,13.6,0,0,0-1.74,8.92A9.65,9.65,0,0,0,97,112.49a12.53,12.53,0,0,0,5.54,1.56,18.07,18.07,0,0,0,4.24-.39,9,9,0,0,1,2.08-.34,1,1,0,0,1,.42.66c.12.53.3,2.24.55,5.14A24.36,24.36,0,0,1,110,124,2.62,2.62,0,0,1,108.66,124.86Z"/><path class="cls-1" d="M136.72,111q-1.41,2.56,0,3.33a8.6,8.6,0,0,0,6.57,1.08l.21-.07V99.6q-1.12,2-2.92,4.86Q137.93,108.79,136.72,111Z"/><path class="cls-2" d="M138.5,87q-.92-.51-2.73-1.62c-1.21-.74-2.13-1.27-2.74-1.61a.65.65,0,0,0-1,.31q-1.89,3.46-5.38,10.55t-5.38,10.56c-1.18,2.16-3.07,5.35-5.64,9.57s-4.46,7.4-5.63,9.55a1,1,0,0,0,.36,1.4,39.25,39.25,0,0,0,5,3,47.68,47.68,0,0,0,5.73,2.82,1,1,0,0,0,1.38-.6q1.23-2.27,3.53-6.88t3.51-6.85c.18-.34,1.56-.31,4.13.09q.33,1,.35,9.41c0,3.45,0,6.9,0,10.35a3,3,0,0,0,.18,1.2,3.83,3.83,0,0,0,.88.89,39.42,39.42,0,0,0,5.21,3.24c1.35.74,2.44,1.29,3.27,1.68v-36l-.21.07a8.6,8.6,0,0,1-6.57-1.08q-1.41-.77,0-3.33,1.2-2.2,3.86-6.54,1.8-2.91,2.92-4.86V89.47l-2.11-1.06C140.1,87.79,139.14,87.3,138.5,87Z"/><path class="cls-2" d="M53.61,93.43a1,1,0,0,0,.36,1.4,44.27,44.27,0,0,0,5.41,3.27,52.54,52.54,0,0,0,5.32,2.6,6.5,6.5,0,0,0,.84.3c.23,0,.46-.2.68-.6q1.92-3.51,5.6-10.68T77.43,79q1.74-3.18,5.57-9.38t5.58-9.38c.24-.44.07-.81-.51-1.13s-1.54-.8-2.77-1.4-2.16-1.07-2.78-1.4-1.53-.88-2.74-1.62S77.66,53.46,77,53.12a.67.67,0,0,0-1,.28q-1.74,3.2-5,9.68t-5,9.69q-2.07,3.78-9.2,15.56C54.48,92.05,53.44,93.75,53.61,93.43Z"/><path class="cls-2" d="M19.05,68.61a2.5,2.5,0,0,0,1.31-.91,24.26,24.26,0,0,0-.19-4.82c-.25-2.9-.43-4.61-.55-5.15a1,1,0,0,0-.42-.65,9.27,9.27,0,0,0-2.08.33,17.6,17.6,0,0,1-4.24.4,12.8,12.8,0,0,1-5.54-1.56,9.65,9.65,0,0,1-5.18-7.17A13.59,13.59,0,0,1,3.9,40.16,13.29,13.29,0,0,1,10.42,34a9.7,9.7,0,0,1,8.8.55,12.21,12.21,0,0,1,4.24,3.86,18.35,18.35,0,0,1,1.94,4,8.55,8.55,0,0,0,.83,2,.94.94,0,0,0,.73.09,27.56,27.56,0,0,0,4.84-2.66c2.71-1.67,4.16-2.69,4.37-3.07a2.09,2.09,0,0,0,0-1.49Q34,28.3,24.31,23A21.1,21.1,0,0,0,6.06,21.63,25.24,25.24,0,0,0,.5,24.51V66.93c.14.08.26.17.4.24Q10,72.15,19.05,68.61Z"/><path class="cls-2" d="M104.92,193.12c-.13-.61-.36-.88-.7-.8-.81.17-2,.51-3.58,1s-2.77.86-3.59,1l-3.38.73q-2.61.38-3.21-.51a8.54,8.54,0,0,1-.77-2.44c-.21-1-.32-1.5-.32-1.58,0-.37.37-.62,1-.75l2.45-.54c3.14-.67,5.15-1.06,6.06-1.15L101,188c.45-.1.64-.32.56-.66q-.43-2-.69-4.11c-.32-2.62-.46-4-.45-4a.49.49,0,0,0-.66-.41,9.44,9.44,0,0,0-1.23.37l-1.25.4q-2.94.83-5.86,1.46c-.29.06-.66.15-1.1.28s-.74.2-.9.23a1.91,1.91,0,0,1-1.61-.16,3.91,3.91,0,0,1-1-2.19,9.83,9.83,0,0,1-.31-2c.1-.47.55-.79,1.37-1,3.27-.7,7-1.32,11.19-1.83l.49-.08c.31-.07.42-.28.35-.64s-.44-1.61-1-3.55-1-3.1-1.12-3.47a1.24,1.24,0,0,0-1.61-.69q-1.69.36-5.07,1.2t-5.07,1.21c-1.14.24-2.87.58-5.17,1s-4,.77-5.17,1c-.42.09-.57.33-.46.71l.1.36q1.07,4,1.58,6,2,7.86,2.62,10.76t1.57,8.63q.94,5.78,1.56,8.63a.69.69,0,0,0,.93.57l5.28-1.11,5.31-1.13c5.44-1.18,8.75-1.81,9.91-1.88a5.29,5.29,0,0,0,.71-.07.86.86,0,0,0,.66-.65,17,17,0,0,0-.08-4A36.43,36.43,0,0,0,104.92,193.12Z"/><path class="cls-2" d="M47,91.69a7.86,7.86,0,0,0,1.26.61c.37.07.75-.12,1.13-.59A50.87,50.87,0,0,0,55,83.33c.25-.46.11-.84-.43-1.13-1.79-1-4.51-2.35-8.19-4.11S39.93,75,38.15,74l-.78-.42a.56.56,0,0,1-.2-.69l.33-.75c.62-1.18,1.63-3.05,3-5.59l4.33-7.86q6.59-11,10-16.4l.25-.37c.22-.37.19-.63-.11-.79-.66-.36-1.65-.86-3-1.5s-2.32-1.13-3-1.49-1.44-.83-2.59-1.53-2-1.22-2.62-1.55-1-.27-1.25.17q-1.89,3.45-5.46,10.47T31.67,56.15q-1.77,3.26-5.43,9.68t-5.42,9.68a1,1,0,0,0,.36,1.39c1.61,1,2.87,1.76,3.78,2.22l8.85,5,6.59,3.8C43.1,89.5,45.31,90.75,47,91.69Z"/><path class="cls-2" d="M113.92,72a21.13,21.13,0,0,0-18.25-1.38A25.74,25.74,0,0,0,81.74,83q-5.11,9.36-2.84,18.58,2.31,9.51,11.61,14.59,9.09,5,18.15,1.45a2.62,2.62,0,0,0,1.31-.91,24.36,24.36,0,0,0-.19-4.83c-.25-2.9-.43-4.61-.55-5.14a1,1,0,0,0-.42-.66,9,9,0,0,0-2.08.34,18.07,18.07,0,0,1-4.24.39A12.53,12.53,0,0,1,97,105.24a9.65,9.65,0,0,1-5.18-7.17,13.6,13.6,0,0,1,1.74-8.92A13.34,13.34,0,0,1,100,83a9.7,9.7,0,0,1,8.8.55,12.21,12.21,0,0,1,4.24,3.86,18.12,18.12,0,0,1,1.93,4,9.31,9.31,0,0,0,.84,2,.9.9,0,0,0,.73.08,27.91,27.91,0,0,0,4.84-2.65c2.71-1.67,4.16-2.7,4.37-3.08a2.06,2.06,0,0,0,0-1.48Q123.59,77.28,113.92,72Z"/><path class="cls-2" d="M76.46,198.06q-1.41-5.51-2-8.28-.66-3-1.75-9c-.73-4-1.31-7-1.75-9-.09-.4-.36-.56-.83-.46s-1,.26-1.74.52-1.36.42-1.74.51-1.15.22-2.07.36-1.59.27-2,.37-.52.46-.64,1.17Q59.64,186,58.46,191.83c-.28,1.4-.5,2.11-.68,2.15s-.84-.4-1.56-1.4L45.93,177.73c-.47-.65-.78-.95-1-.92-.85.19-2.12.49-3.8.92s-3,.73-3.8.92c-.67.14-1,.38-.86.72l.11.42q1.09,4.14,1.57,6.25,2,8.07,2.64,11,.6,2.77,1.56,8.4T44,213.85a1.25,1.25,0,0,0,.23.55c.09.09.3.11.6,0l7.74-1.67c.43-.1.58-.44.45-1q-.54-2.49-1.74-7.46c-.8-3.31-1.37-5.79-1.74-7.46a1.29,1.29,0,0,1,0-.77.94.94,0,0,1,.27.23q1.63,2.29,5,7.47,3.19,4.9,5,7.44c.23.3.75.37,1.55.19a8.13,8.13,0,0,0,.92-.22,1.05,1.05,0,0,0,.43-.81c.46-3.25.92-6.5,1.37-9.77a79.74,79.74,0,0,1,1.4-8.54c.15,0,.27.26.38.75.37,1.71.87,4.3,1.5,7.75s1.13,6,1.5,7.75c.13.6.41.85.86.75l8.2-1.77c.44-.1.61-.41.5-.94C78.07,204.49,77.4,201.73,76.46,198.06Z"/></g></g></svg>