<svg xmlns="http://www.w3.org/2000/svg" xmlns:xlink="http://www.w3.org/1999/xlink" viewBox="0 0 265.9 464.45"><defs><style>.cls-1,.cls-2{fill:none;}.cls-1,.cls-2,.cls-3,.cls-4,.cls-5,.cls-6,.cls-7,.cls-8,.cls-9{stroke-miterlimit:10;stroke-width:3px;}.cls-1{stroke:url(#新增漸層色票_1);}.cls-2{stroke:url(#新增漸層色票_1-2);}.cls-3,.cls-4,.cls-5,.cls-6,.cls-7,.cls-8,.cls-9{fill:#fff;}.cls-3{stroke:url(#新增漸層色票_1-3);}.cls-4{stroke:url(#新增漸層色票_1-4);}.cls-5{stroke:url(#新增漸層色票_1-5);}.cls-6{stroke:url(#新增漸層色票_1-6);}.cls-7{stroke:url(#新增漸層色票_1-7);}.cls-8{stroke:url(#新增漸層色票_1-8);}.cls-9{stroke:url(#新增漸層色票_1-9);}</style><radialGradient id="新增漸層色票_1" cx="132.95" cy="232.22" r="189.21" gradientUnits="userSpaceOnUse"><stop offset="0" stop-color="#fbfc2f"/><stop offset="0.06" stop-color="#e3ee49"/><stop offset="0.18" stop-color="#a7cc8c"/><stop offset="0.26" stop-color="#80b5b7"/><stop offset="0.37" stop-color="#5ec6a3"/><stop offset="0.48" stop-color="#3fd592"/><stop offset="0.55" stop-color="#33db8b"/><stop offset="0.55" stop-color="#33d88e"/><stop offset="0.62" stop-color="#33bcab"/><stop offset="0.69" stop-color="#33a6c1"/><stop offset="0.77" stop-color="#3397d1"/><stop offset="0.86" stop-color="#338eda"/><stop offset="0.98" stop-color="#338bdd"/></radialGradient><radialGradient id="新增漸層色票_1-2" cx="257.52" cy="196.42" r="14.24" xlink:href="#新增漸層色票_1"/><radialGradient id="新增漸層色票_1-3" cx="233.48" cy="210.28" r="46.66" xlink:href="#新增漸層色票_1"/><radialGradient id="新增漸層色票_1-4" cx="131.25" cy="142.13" r="40.19" xlink:href="#新增漸層色票_1"/><radialGradient id="新增漸層色票_1-5" cx="34.43" cy="83.55" r="41.41" xlink:href="#新增漸層色票_1"/><radialGradient id="新增漸層色票_1-6" cx="166.75" cy="342.45" r="34.23" xlink:href="#新增漸層色票_1"/><radialGradient id="新增漸層色票_1-7" cx="70.37" cy="117.45" r="45.06" xlink:href="#新增漸層色票_1"/><radialGradient id="新增漸層色票_1-8" cx="188.22" cy="173.62" r="46.38" xlink:href="#新增漸層色票_1"/><radialGradient id="新增漸層色票_1-9" cx="106.29" cy="355.16" r="40.68" xlink:href="#新增漸層色票_1"/></defs><g id="圖層_2" data-name="圖層 2"><g id="圖層_1-2" data-name="圖層 1"><path class="cls-1" d="M258.38,275.66a72.35,72.35,0,0,1-9.57-5.94,7.19,7.19,0,0,1-1.63-1.64,5.43,5.43,0,0,1-.32-2.21q0-9.53.08-19,0-15.4-.65-17.3c-4.73-.73-7.26-.79-7.6-.16q-2.25,4.11-6.46,12.59t-6.48,12.65a1.91,1.91,0,0,1-2.53,1.11,90.63,90.63,0,0,1-10.54-5.2,72.15,72.15,0,0,1-9.19-5.59,1.91,1.91,0,0,1-.66-2.57q3.24-5.91,10.34-17.55t10.38-17.61q3.47-6.36,9.89-19.4t9.89-19.39a1.19,1.19,0,0,1,1.81-.58c1.14.62,2.81,1.61,5,3s3.9,2.35,5,3,2.94,1.53,5.3,2.68c1.58.77,2.86,1.41,3.89,1.94V38.8A37.31,37.31,0,0,0,227.09,1.5H38.8A37.3,37.3,0,0,0,1.5,38.8V59a46,46,0,0,1,10.21-5.31q17.24-6.37,33.56,2.55Q63,65.93,67.15,82.34a3.91,3.91,0,0,1-.07,2.74c-.38.69-3.06,2.58-8,5.64s-7.95,4.7-8.9,4.89a1.71,1.71,0,0,1-1.34-.16,16.54,16.54,0,0,1-1.54-3.69,33.45,33.45,0,0,0-3.56-7.29,22.48,22.48,0,0,0-7.79-7.1,17.84,17.84,0,0,0-16.18-1q-7.5,3.16-12,11.39t-3.2,16.4a17.73,17.73,0,0,0,9.52,13.18,23.24,23.24,0,0,0,10.18,2.86,31.28,31.28,0,0,0,7.8-.72,15.74,15.74,0,0,1,3.83-.61,1.74,1.74,0,0,1,.76,1.2q.34,1.47,1,9.46c.44,5.51.56,8.47.34,8.87a4.76,4.76,0,0,1-2.41,1.67Q19,146.54,2.24,137.4c-.26-.14-.49-.3-.74-.44V425.64A37.3,37.3,0,0,0,38.8,463H227.09a37.31,37.31,0,0,0,37.31-37.31V278.75C262.86,278,260.87,277,258.38,275.66Zm-136.55-128q3.21-5.87,9.24-17.8t9.23-17.81a1.24,1.24,0,0,1,1.92-.51q1.69.93,5,3t5,3q1.69.93,5.1,2.58c2.27,1.1,4,2,5.11,2.57s1.37,1.28.93,2.08q-3.21,5.86-10.25,17.25t-10.25,17.24q-3.54,6.48-10.31,19.64t-10.3,19.64c-.4.73-.82,1.09-1.25,1.1a15.39,15.39,0,0,1-1.54-.56,93.89,93.89,0,0,1-9.78-4.78q-8-4.38-10-6a1.91,1.91,0,0,1-.66-2.57q-.48.88,5.77-9.37Q118,154.65,121.83,147.69ZM46.46,159.37q-2.49-1.29-7-4.08a1.86,1.86,0,0,1-.66-2.57q3.27-6,10-17.79t10-17.79q3.48-6.35,10-19.25t10-19.25c.44-.81,1.21-.91,2.3-.31s2.7,1.55,4.82,2.85,3.7,2.23,4.76,2.81,3,1.58,5.47,2.75,4.27,2.08,5.48,2.74c.55.3.61.79.2,1.46l-.45.68q-6.28,9.94-18.4,30.16l-8,14.44q-3.84,7-5.55,10.28c-.2.45-.4.91-.61,1.37a1,1,0,0,0,.37,1.27l1.43.78q4.94,2.7,15.05,7.56T100.82,165c1,.54,1.25,1.23.79,2.07A94.64,94.64,0,0,1,91.4,182.52a2.24,2.24,0,0,1-2.08,1.07A13.4,13.4,0,0,1,87,182.47q-4.71-2.58-12.15-6.93l-12.13-7Zm97.46,235.56-15.07,3.27c-.82.17-1.35-.28-1.59-1.37q-1-4.74-2.75-14.26c-1.16-6.35-2.07-11.1-2.76-14.25-.19-.91-.42-1.36-.69-1.37q-.42.39-2.57,15.7-1.26,9-2.53,18a1.94,1.94,0,0,1-.79,1.49,14.68,14.68,0,0,1-1.69.42c-1.48.32-2.43.2-2.84-.37q-3.42-4.65-9.29-13.67-6.25-9.53-9.26-13.72a1.44,1.44,0,0,0-.49-.44,2.5,2.5,0,0,0,0,1.43c.67,3.05,1.73,7.63,3.2,13.71s2.53,10.66,3.19,13.72c.24,1.09,0,1.72-.84,1.9l-14.21,3.08c-.57.12-.93.09-1.11-.08a2.25,2.25,0,0,1-.42-1q-1.09-5.12-2.87-15.43T75.65,376.2q-1.17-5.43-4.83-20.27-.88-3.89-2.89-11.48l-.22-.79q-.24-.93,1.59-1.32,2.34-.51,7-1.69t7-1.68c.31-.07.89.49,1.75,1.68L103.94,368c1.32,1.84,2.28,2.7,2.87,2.57.32-.07.73-1.38,1.24-3.95q2.17-10.75,6.31-32.39c.22-1.32.61-2,1.18-2.16.82-.18,2.07-.4,3.75-.67s2.95-.49,3.8-.68a30.88,30.88,0,0,0,3.2-.94q2.14-.71,3.21-.93c.85-.19,1.36.09,1.52.84q1.2,5.53,3.21,16.58t3.22,16.58q1.1,5.1,3.7,15.23t3.68,15.17C145,394.18,144.74,394.76,143.92,394.93Zm50.58-11.15a1.59,1.59,0,0,1-1.21,1.19,9.36,9.36,0,0,1-1.31.14q-3.19.19-18.22,3.46-3.28.71-9.76,2.06c-4.32.91-7.56,1.59-9.71,2.06a1.25,1.25,0,0,1-1.7-1.06q-1.14-5.24-2.88-15.86t-2.89-15.87q-1.15-5.34-4.82-19.78-.93-3.72-2.89-11.09l-.18-.65c-.22-.7.06-1.14.83-1.3q3.15-.69,9.51-1.87t9.51-1.86q3.1-.68,9.32-2.22t9.32-2.21c1.48-.33,2.46.1,3,1.27q.45,1,2.07,6.38c1.09,3.58,1.72,5.75,1.89,6.53s-.07,1-.64,1.17c-.17,0-.47.09-.91.15q-11.53,1.41-20.56,3.37c-1.5.33-2.34.92-2.51,1.77a16.9,16.9,0,0,0,.56,3.65c.46,2.13,1,3.47,1.77,4a3.5,3.5,0,0,0,3,.29c.28-.06.83-.2,1.64-.43s1.49-.39,2-.51q5.37-1.15,10.78-2.68l2.29-.74a22,22,0,0,1,2.26-.69.93.93,0,0,1,1.22.77s0,0,0,.09l0-.09q0,.19.82,7.42c.31,2.54.74,5.07,1.28,7.56.14.63-.21,1-1,1.21l-3.93.36q-2.49.24-11.13,2.11l-4.51,1c-1.16.25-1.78.71-1.84,1.38,0,.16.2,1.13.59,2.91a15.19,15.19,0,0,0,1.42,4.5c.74,1.08,2.7,1.39,5.9.92l6.21-1.34q2.26-.5,6.61-1.9t6.56-1.89c.63-.13,1.06.36,1.31,1.49a67.83,67.83,0,0,1,.87,7.55Q194.86,382.53,194.5,383.78Zm5.84-153.66q-16.64,6.49-33.36-2.65-17.1-9.34-21.35-26.83-4.19-17,5.23-34.16,9.1-16.66,25.6-22.74,17.22-6.39,33.56,2.54,17.74,9.72,21.87,26.13a3.86,3.86,0,0,1-.07,2.74q-.57,1-8,5.64t-8.9,4.89a1.72,1.72,0,0,1-1.34-.16,17.12,17.12,0,0,1-1.54-3.69,33,33,0,0,0-3.56-7.29,22.38,22.38,0,0,0-7.79-7.1,17.84,17.84,0,0,0-16.18-1q-7.48,3.17-12,11.39t-3.2,16.4a17.72,17.72,0,0,0,9.53,13.18A23.16,23.16,0,0,0,189,210.25a31.25,31.25,0,0,0,7.79-.72,15.8,15.8,0,0,1,3.83-.61,1.74,1.74,0,0,1,.76,1.2c.23,1,.57,4.13,1,9.45q.68,8.28.34,8.88A4.76,4.76,0,0,1,200.34,230.12Z"/><path class="cls-2" d="M251.93,204.65q-2.58,4.71,0,6.12,6.51,3.57,12.08,2c.13,0,.26-.09.39-.13V183.69c-1.39,2.39-3.17,5.36-5.37,8.93Q254.14,200.6,251.93,204.65Z"/><path class="cls-3" d="M255.21,160.44q-1.69-.93-5-3c-2.23-1.36-3.9-2.35-5-3a1.19,1.19,0,0,0-1.81.58q-3.47,6.34-9.89,19.4t-9.9,19.39q-3.25,6-10.37,17.61T202.83,229a1.91,1.91,0,0,0,.66,2.57,71,71,0,0,0,9.19,5.59,90.63,90.63,0,0,0,10.54,5.2,1.91,1.91,0,0,0,2.53-1.11q2.26-4.17,6.48-12.65t6.46-12.59q.51-.93,7.6.16.6,1.9.65,17.3-.08,9.51-.08,19a5.43,5.43,0,0,0,.32,2.21,7.19,7.19,0,0,0,1.63,1.64,73,73,0,0,0,9.57,5.94c2.49,1.36,4.48,2.38,6,3.09V199.29c-.13,0-.26.1-.39.13q-5.56,1.59-12.08-2-2.58-1.41,0-6.12,2.2-4,7.1-12c2.2-3.58,4-6.55,5.37-8.94v-5.3c-1-.53-2.31-1.17-3.89-1.94C258.15,162,256.38,161.08,255.21,160.44Z"/><path class="cls-4" d="M99.14,172.35a1.91,1.91,0,0,0,.66,2.57,78.91,78.91,0,0,0,10,6,93.89,93.89,0,0,0,9.78,4.78,15.39,15.39,0,0,0,1.54.56c.43,0,.85-.37,1.25-1.1q3.53-6.46,10.3-19.64t10.31-19.63q3.21-5.86,10.25-17.25t10.25-17.25q.66-1.2-.93-2.07c-1.13-.62-2.84-1.48-5.11-2.58s-4-2-5.1-2.58-2.81-1.61-5-3-3.9-2.35-5-3a1.24,1.24,0,0,0-1.92.52q-3.21,5.86-9.23,17.8t-9.24,17.8q-3.81,7-16.92,28.62Q98.66,173.23,99.14,172.35Z"/><path class="cls-5" d="M35.6,126.72A4.7,4.7,0,0,0,38,125.05q.33-.6-.34-8.87-.69-8-1-9.46a1.74,1.74,0,0,0-.76-1.2,15.74,15.74,0,0,0-3.83.61,31.25,31.25,0,0,1-7.79.72A23.24,23.24,0,0,1,14.07,104,17.71,17.71,0,0,1,4.55,90.81q-1.35-8.07,3.2-16.4T19.74,63a17.84,17.84,0,0,1,16.18,1,22.51,22.51,0,0,1,7.79,7.11,33.13,33.13,0,0,1,3.56,7.28,16.54,16.54,0,0,0,1.54,3.69,1.67,1.67,0,0,0,1.34.16q1.43-.28,8.9-4.88t8-5.65A3.91,3.91,0,0,0,67.15,69Q63,52.6,45.27,42.89,29,34,11.71,40.34A46,46,0,0,0,1.5,45.65v78c.25.14.48.3.74.44Q19,133.22,35.6,126.72Z"/><path class="cls-6" d="M193.48,355.63c-.25-1.13-.68-1.62-1.31-1.49q-2.21.48-6.56,1.89t-6.61,1.9l-6.21,1.34c-3.2.47-5.16.16-5.9-.92a15.19,15.19,0,0,1-1.42-4.5c-.39-1.77-.58-2.75-.59-2.91.06-.67.68-1.12,1.84-1.38l4.51-1q8.64-1.87,11.13-2.12l3.93-.36c.82-.18,1.17-.58,1-1.21q-.81-3.73-1.28-7.56-.87-7.23-.82-7.42a.92.92,0,0,0-1.22-.76,19.33,19.33,0,0,0-2.26.68l-2.29.74q-5.41,1.51-10.78,2.68c-.54.12-1.22.29-2,.51s-1.36.37-1.64.43a3.5,3.5,0,0,1-3-.29c-.72-.56-1.31-1.9-1.77-4a16.82,16.82,0,0,1-.56-3.65c.17-.85,1-1.44,2.51-1.77q9-1.95,20.56-3.37c.44-.06.74-.11.91-.15.57-.12.78-.51.64-1.17s-.8-2.95-1.89-6.52-1.77-5.7-2.07-6.39c-.49-1.17-1.47-1.6-3-1.27-2.07.45-5.18,1.18-9.32,2.21s-7.25,1.77-9.32,2.22-5.27,1.07-9.51,1.86-7.41,1.41-9.51,1.87c-.77.16-1,.6-.83,1.3l.18.65q1.95,7.37,2.89,11.09,3.67,14.44,4.82,19.78t2.89,15.87q1.74,10.62,2.88,15.87a1.25,1.25,0,0,0,1.7,1.05c2.15-.47,5.39-1.15,9.71-2.06s7.57-1.59,9.76-2.06q15-3.25,18.22-3.46a9.36,9.36,0,0,0,1.31-.14,1.58,1.58,0,0,0,1.21-1.19q.36-1.26-.15-7.27A67.83,67.83,0,0,0,193.48,355.63Z"/><path class="cls-7" d="M87,169.14a13.4,13.4,0,0,0,2.31,1.12c.68.14,1.38-.22,2.08-1.07a94.64,94.64,0,0,0,10.21-15.42c.46-.84.2-1.53-.79-2.07q-4.93-2.7-15.06-7.55t-15.05-7.56l-1.42-.78a1,1,0,0,1-.38-1.27c.21-.46.41-.91.61-1.37q1.71-3.27,5.55-10.28l8-14.44q12.1-20.2,18.4-30.15l.45-.69c.41-.67.35-1.16-.2-1.46-1.21-.66-3-1.57-5.48-2.74s-4.27-2.09-5.47-2.75S88.09,69.14,86,67.85,82.26,65.6,81.16,65s-1.86-.5-2.3.31q-3.48,6.36-10,19.25t-10,19.26q-3.25,6-10,17.78t-10,17.79a1.86,1.86,0,0,0,.66,2.57q4.45,2.79,7,4.09l16.27,9.17,12.13,7Q82.3,166.56,87,169.14Z"/><path class="cls-8" d="M210,133q-16.34-8.94-33.56-2.55-16.5,6.08-25.6,22.74-9.42,17.21-5.23,34.16,4.26,17.49,21.35,26.83,16.72,9.13,33.36,2.65a4.76,4.76,0,0,0,2.41-1.67q.33-.6-.34-8.87-.69-8-1-9.46a1.74,1.74,0,0,0-.76-1.2,15.8,15.8,0,0,0-3.83.61,31.25,31.25,0,0,1-7.79.72,23.16,23.16,0,0,1-10.18-2.86,17.72,17.72,0,0,1-9.53-13.18q-1.35-8.07,3.2-16.4t12-11.39a17.84,17.84,0,0,1,16.18,1,22.48,22.48,0,0,1,7.79,7.1A33,33,0,0,1,212,168.5a16.54,16.54,0,0,0,1.54,3.69,1.72,1.72,0,0,0,1.34.16q1.43-.28,8.9-4.89c5-3.06,7.65-5,8-5.64a3.86,3.86,0,0,0,.07-2.74Q227.78,142.67,210,133Z"/><path class="cls-9" d="M141.15,364.71q-2.6-10.12-3.7-15.23-1.2-5.52-3.22-16.58T131,316.32c-.16-.74-.67-1-1.52-.84a31.63,31.63,0,0,0-3.21.94c-1.42.47-2.49.78-3.2.94s-2.12.41-3.8.67-2.93.49-3.75.67c-.57.12-1,.84-1.18,2.16q-4.14,21.63-6.31,32.39c-.51,2.57-.92,3.88-1.24,3.95-.59.13-1.55-.73-2.87-2.57L85,327.32c-.86-1.19-1.44-1.75-1.75-1.68q-2.34.51-7,1.68t-7,1.69c-1.22.26-1.75.71-1.59,1.32l.22.79q2,7.61,2.89,11.48,3.66,14.83,4.83,20.27,1.11,5.1,2.88,15.43t2.87,15.43a2.19,2.19,0,0,0,.42,1c.18.18.54.2,1.11.08l14.21-3.08c.8-.17,1.08-.81.84-1.9q-1-4.59-3.19-13.72t-3.2-13.71a2.5,2.5,0,0,1,0-1.43,1.44,1.44,0,0,1,.49.44q3,4.2,9.26,13.72,5.87,9,9.29,13.68c.41.56,1.36.68,2.84.36a14.68,14.68,0,0,0,1.69-.42,1.92,1.92,0,0,0,.79-1.49q1.28-9,2.53-17.95,2.16-15.31,2.57-15.7c.27,0,.5.47.69,1.37.69,3.15,1.6,7.9,2.76,14.25s2.07,11.1,2.75,14.26c.24,1.09.77,1.55,1.59,1.37l15.07-3.26c.82-.18,1.12-.76.91-1.72Q143.75,374.84,141.15,364.71Z"/></g></g></svg>