<svg xmlns="http://www.w3.org/2000/svg" xmlns:xlink="http://www.w3.org/1999/xlink" viewBox="0 0 110 32"><defs><style>.cls-1{fill:url(#未命名漸層_77);}.cls-2{fill:#fff;}</style><linearGradient id="未命名漸層_77" x1="-8.67" y1="24.73" x2="117.08" y2="7.49" gradientUnits="userSpaceOnUse"><stop offset="0" stop-color="#f0f"/><stop offset="0.1" stop-color="#ff25cd"/><stop offset="0.19" stop-color="#ff43a4"/><stop offset="0.28" stop-color="#ff5986"/><stop offset="0.35" stop-color="#ff6673"/><stop offset="0.41" stop-color="#ff6b6d"/><stop offset="0.8" stop-color="#ffae12"/><stop offset="0.89" stop-color="#ffb00f"/><stop offset="0.96" stop-color="#ffb804"/><stop offset="0.98" stop-color="#fb0"/></linearGradient></defs><g id="圖層_2" data-name="圖層 2"><g id="圖層_1-2" data-name="圖層 1"><rect class="cls-1" width="110" height="32"/><path class="cls-2" d="M27.4,24.34a1.32,1.32,0,0,1-.37.74,10.64,10.64,0,0,1-8.59,3.85,11.48,11.48,0,0,1-8.9-3.75A13,13,0,0,1,6.22,16,13.32,13.32,0,0,1,9.47,7a10.93,10.93,0,0,1,8.63-3.9q5.7,0,8.93,3.5a1.08,1.08,0,0,1,.35.68,10.52,10.52,0,0,1-1.22,2.48,13.12,13.12,0,0,1-1.54,2.41.45.45,0,0,1-.35.14,4.54,4.54,0,0,1-.88-.7,9.43,9.43,0,0,0-1.86-1.32,6.28,6.28,0,0,0-2.88-.7,5,5,0,0,0-4.13,1.93,6.9,6.9,0,0,0-1.43,4.43,7,7,0,0,0,1.43,4.48,5,5,0,0,0,4.13,2,6.49,6.49,0,0,0,2.9-.67,8.63,8.63,0,0,0,1.83-1.23,4.26,4.26,0,0,1,.86-.66.48.48,0,0,1,.35.19c.19.21.7.94,1.53,2.2A13.1,13.1,0,0,1,27.4,24.34Z"/><path class="cls-2" d="M45.46,28.61c-1,0-2.33,0-3.94-.07l-3.94-.09-5.26-.07c-.52,0-1.28,0-2.26-.07q-.51-.09-.51-.54c0-1.28,0-3.19.06-5.74s.06-4.46.06-5.74,0-3.4-.12-6.11-.13-4.75-.13-6.11c0-.25.18-.38.53-.38s.88,0,1.57.05,1.22,0,1.56,0,1,0,1.72-.06,1.34-.06,1.73-.06q.26,0,.24.33l0,.23c-.14,2.2-.29,5.52-.47,9.93l0,4.64c0,1.5,0,2.6,0,3.29l0,.42a.31.31,0,0,0,.27.27H37c1.05,0,2.63-.06,4.73-.17s3.69-.17,4.74-.17c.32,0,.47.14.47.41A26,26,0,0,1,46.54,28c0,.31-.18.49-.36.55A4.27,4.27,0,0,1,45.46,28.61Z"/><path class="cls-2" d="M56.12,15.32q0,2.09.11,6.24t.11,6.24c0,.24-.06.38-.16.44a3.39,3.39,0,0,1-.46.07,24.91,24.91,0,0,1-3.06.14,21.51,21.51,0,0,1-3.27-.14q-.51-.11-.51-.54c0,.19.06-.85.16-3.1q.32-7.11.32-9.35c0-1.25,0-3.13-.13-5.64S49.11,5.29,49.11,4c0-.26.14-.39.41-.39s.91,0,1.64.05,1.28.06,1.64.06.9,0,1.61-.06,1.25-.05,1.61-.05.51.13.51.39c0,1.25-.07,3.13-.2,5.64S56.12,14.07,56.12,15.32Z"/><path class="cls-2" d="M80.24,24.34a1.32,1.32,0,0,1-.37.74,10.64,10.64,0,0,1-8.59,3.85,11.48,11.48,0,0,1-8.9-3.75A13,13,0,0,1,59.06,16,13.32,13.32,0,0,1,62.31,7a10.93,10.93,0,0,1,8.63-3.9q5.7,0,8.93,3.5a1.08,1.08,0,0,1,.35.68A10.52,10.52,0,0,1,79,9.73a13.12,13.12,0,0,1-1.54,2.41.45.45,0,0,1-.35.14,4.54,4.54,0,0,1-.88-.7,9.43,9.43,0,0,0-1.86-1.32,6.28,6.28,0,0,0-2.88-.7,5,5,0,0,0-4.13,1.93,6.9,6.9,0,0,0-1.43,4.43,7,7,0,0,0,1.43,4.48,5,5,0,0,0,4.13,2,6.49,6.49,0,0,0,2.9-.67,8.63,8.63,0,0,0,1.83-1.23,4.26,4.26,0,0,1,.86-.66.48.48,0,0,1,.35.19c.19.21.7.94,1.53,2.2A13.1,13.1,0,0,1,80.24,24.34Z"/><path class="cls-2" d="M103.78,27.33a.94.94,0,0,1-.65,1,12.12,12.12,0,0,1-2.78.18,19.78,19.78,0,0,1-3.16-.18,2.24,2.24,0,0,1-.63-.18,1.57,1.57,0,0,1-.37-.5q-1.29-2.36-2.55-4.71a35,35,0,0,0-2.5-4.19c-1.26.46-1.9.79-1.9,1,0,.88,0,2.2.11,4s.1,3.11.1,4c0,.36-.16.57-.47.61a24.56,24.56,0,0,1-3.31.14,19.34,19.34,0,0,1-3-.14q-.51-.11-.51-.54c0-1.27.06-3.18.19-5.73s.18-4.47.18-5.75-.06-3.4-.18-6.13S82.16,5.4,82.16,4c0-.26.12-.39.37-.39s.91,0,1.64.05,1.28.06,1.64.06.94,0,1.67-.06,1.29-.05,1.66-.05c.2,0,.3.11.3.32,0,.86,0,2.17-.14,3.93s-.13,3.06-.13,3.93.28,1.51.83,1.51a4.4,4.4,0,0,0,3.25-1.15A9.21,9.21,0,0,0,95,9.12c.38-1.14,1-2.81,1.85-5a.77.77,0,0,1,.79-.44c.3,0,.76,0,1.38.05s1.07.06,1.38.06.78,0,1.41,0l1.4,0c.28,0,.42.13.42.4a12.77,12.77,0,0,1-.74,2.83q-2.17,6.65-5,8.3c-.38.22-.58.4-.58.54L100.54,21Q103.78,26.32,103.78,27.33Z"/></g></g></svg>