<svg xmlns="http://www.w3.org/2000/svg" viewBox="0 0 180.05 305.9"><defs><style>.cls-1{fill:#f7dcbc;}.cls-2{fill:#fff;}.cls-3{fill:#e5e4e3;}.cls-4{fill:#f4cf16;}.cls-5{fill:#e8d99e;}.cls-6{fill:#fcd9b1;}.cls-7{fill:#fce6c9;}.cls-8{fill:#70451b;}.cls-9{fill:#b5641c;}.cls-10{fill:#9e612e;}.cls-11{fill:#b76e37;}.cls-12{fill:#915927;}.cls-13{fill:#aa6b37;}.cls-14{fill:#dd9043;}.cls-15{fill:#cc7a42;}.cls-16{fill:#663c20;}.cls-17{fill:#8c5522;}.cls-18{fill:#d37f66;}.cls-19{fill:#333;}</style></defs><g id="圖層_2" data-name="圖層 2"><g id="圖層_1-2" data-name="圖層 1"><ellipse class="cls-1" cx="65.4" cy="285" rx="5.5" ry="14.54"/><ellipse class="cls-1" cx="106.4" cy="284.83" rx="5.5" ry="14.54"/><path class="cls-2" d="M59.49,303.1V291.58c0-1.42,1.59-2.53,3.56-2.47l3.77.12c2,.06,3.63,1.28,3.63,2.73v11.47c0,1.42-1.6,2.53-3.56,2.47l-3.85-.12C61.08,305.72,59.49,304.52,59.49,303.1Z"/><ellipse class="cls-3" cx="66.06" cy="296.19" rx="2.28" ry="4.81" transform="translate(-231.67 354.9) rotate(-88.58)"/><path class="cls-2" d="M70.83,296.1,61,296c-.36,0-.64.17-.63.39l.22,5.23c0,.21.31.39.66.39l9.8.08c.35,0,.63-.17.62-.39l-.22-5.23C71.48,296.28,71.19,296.1,70.83,296.1Z"/><path class="cls-4" d="M27.9,183c18.38,11.53,41-12,34.15,5.06,2.48,5.91,2.85,1.12-2.25,6.17l5.74,26.07C59.63,220.46,31.9,201,20.9,201c-7.07,0-13-32-16-37-2.58-4.29,6,.44,8,0C21.9,162,11.08,172.45,27.9,183Z"/><path class="cls-5" d="M116.9,238l-6.37-53.32c-1.31-4.67-5.28-7-8.83-5.27-4.54,2.28-10.83,3.69-17.78,3.69a41.07,41.07,0,0,1-17.34-3.48c-3.67-1.75-7.72.79-8.9,5.67L48.9,238c-1.15,4.75-7.2,26.84-5.93,36.7A5,5,0,0,0,47.91,279h72C125.9,271,118.53,243.78,116.9,238Z"/><path class="cls-6" d="M102.66,177.94a12,12,0,0,1,.24,2.41c0,8.37-8.29,15.16-18.5,15.16s-18.5-6.79-18.5-15.16c0-.46,0-.91.07-1.35h36.52Z"/><path class="cls-7" d="M91,25.24c18.7-2.33,54.54,42.85,55.32,67.78,0-3.88,12.46-11.69,13.24-2.34,2.54,27.63-6.23,31.94-13.24,21,0,0-6.68,30.89-14.05,41s-23.87,25.52-44.77,28.76a53.86,53.86,0,0,1-30.1-9.34h0c-19.52-14.81-25.48-35.4-31.44-63.89-3.51-16.75,1.16-25.32,8.18-40.12C39.57,47.84,59.55,25.24,91,25.24"/><path class="cls-8" d="M58.66,173.26C1,170.92-13.79,128.85,12.69,58v.78C16.59,47.06,47.75,1.87,67.22,3.43c61.55-13.24,86.45,13,106.73,58.43,17.92,52.19-8.57,109.84-16.36,109.06-11.68,2.34-31.94-12.46-38.17-3.89l-1.62.72a79.56,79.56,0,0,0,14.84-15.07c7.37-10.07,14-41,14-41,7,10.9,15.79,6.59,13.25-21-.78-9.35-13.25-1.54-13.25,2.34-.77-24.93-36.61-70.11-55.31-67.78-31.43,0-55.31,36.62-60.76,61.55-3.36,7.06-4.49,13.5-4.28,23,.64,29.1,11.92,49.08,31.44,63.89"/><path class="cls-9" d="M157.13,75.08A15.87,15.87,0,0,0,153.28,69a18.67,18.67,0,0,0-2.64-2.33,15.1,15.1,0,0,0-2.86-1.76,6.19,6.19,0,0,0-2.83-.62c-.84,0-1.29.09-1.76.14a3.75,3.75,0,0,0-2,1c-.83.68-1.65,1.65-2.74,2.71l-.59-.1a7.77,7.77,0,0,1-.44-4.54A6.83,6.83,0,0,1,140.52,59a6.56,6.56,0,0,1,2.91-.93,7.28,7.28,0,0,1,2.76.36,14.85,14.85,0,0,1,4.14,2.36,19.83,19.83,0,0,1,3.09,3,23.59,23.59,0,0,1,2.31,3.45,15.19,15.19,0,0,1,2,7.79Z"/><path class="cls-10" d="M56.43,31C50.12,42.31,44,53.66,38.56,65.27c-1.41,2.87-2.65,5.81-4,8.72L32.77,78.4c-.62,1.46-1.19,2.94-1.73,4.43a138.94,138.94,0,0,0-5.8,17.88,72.27,72.27,0,0,0-2.22,18c.07,1.46,0,2.93.16,4.36l.12,2.14c.08.71.19,1.41.26,2.11l.1,1.06.17,1,.33,2.08c.33,1.35.52,2.75.95,4.08a43.66,43.66,0,0,0,2.89,8c.57,1.33,1.31,2.59,2,3.91.36.64.77,1.27,1.15,1.91s.78,1.29,1.2,1.92c3.28,5.13,7.41,10,11.49,15.27l-.72,1a58.88,58.88,0,0,1-17.17-10.67,46.36,46.36,0,0,1-7-7.89,22.6,22.6,0,0,1-1.49-2.26c-.47-.77-.95-1.54-1.39-2.34a52.28,52.28,0,0,1-2.28-5A44.91,44.91,0,0,1,11.16,118,99.77,99.77,0,0,1,16,98c4.31-12.76,10.48-24.43,17.25-35.58A366.22,366.22,0,0,1,55.43,30.37Z"/><path class="cls-11" d="M56.38,31.09c-2,2.76-4,5.43-5.86,8.27-.93,1.41-1.93,2.77-2.8,4.21l-2.66,4.28A172.37,172.37,0,0,0,35.8,65.62a135.28,135.28,0,0,0-6.73,18.64,107.93,107.93,0,0,0-3.76,19.17,74,74,0,0,0,.55,19.07,98.44,98.44,0,0,0,4.38,17.85,53.43,53.43,0,0,0,8.93,15.76,58.45,58.45,0,0,0,15,12.29l-.33,1.15a37.94,37.94,0,0,1-20.35-7.16,46.78,46.78,0,0,1-14.25-17.3A54.32,54.32,0,0,1,14,123.58a101.39,101.39,0,0,1,1.78-21.49A115.82,115.82,0,0,1,21.5,81.75a142.7,142.7,0,0,1,9-18.85A166.87,166.87,0,0,1,42,45.73,177.47,177.47,0,0,1,55.48,30.3Z"/><path class="cls-11" d="M59.75,27.7C56.91,29.93,54,32,51.31,34.41l-2.05,1.75-1,.87-1,.93-3.85,3.72a113.87,113.87,0,0,0-13.32,16.5,93.58,93.58,0,0,0-9.62,18.58,90.3,90.3,0,0,0-5.35,19.95A74,74,0,0,0,15,117a111,111,0,0,0,4.12,19.42A62.54,62.54,0,0,0,27.89,154a49.54,49.54,0,0,0,15.35,13.61l-.33,1.15a36.37,36.37,0,0,1-21.16-8.9A52.85,52.85,0,0,1,7.91,140.71a60.82,60.82,0,0,1-4.77-22.9,101.65,101.65,0,0,1,10-44.27,100.79,100.79,0,0,1,12.07-18.9A115.76,115.76,0,0,1,40.9,38.9,129.28,129.28,0,0,1,59.11,26.68Z"/><path class="cls-11" d="M60.53,33.15c-2.84,2.23-5.79,4.29-8.45,6.71l-2,1.75-1,.87-1,.94-3.85,3.71a113.87,113.87,0,0,0-13.32,16.5,93.66,93.66,0,0,0-9.62,18.59,90.07,90.07,0,0,0-5.35,19.94,74.06,74.06,0,0,0-.14,20.33A109.94,109.94,0,0,0,19.9,141.9a62.28,62.28,0,0,0,8.77,17.56A49.54,49.54,0,0,0,44,173.07l-.33,1.15a36.37,36.37,0,0,1-21.16-8.9A53,53,0,0,1,8.68,146.17a61,61,0,0,1-4.76-22.9A99,99,0,0,1,26,60.09,115.76,115.76,0,0,1,41.68,44.35,129.21,129.21,0,0,1,59.89,32.14Z"/><path class="cls-12" d="M56.35,31.13a166.61,166.61,0,0,0-12.67,16,116.4,116.4,0,0,0-10,17.51,95.38,95.38,0,0,0-6.59,18.72,79.45,79.45,0,0,0-2.35,19.33,63.94,63.94,0,0,0,3,18.83c.46,1.51,1,3,1.49,4.47s1.1,2.94,1.71,4.38c1.22,2.87,2.47,5.75,3.95,8.52a93.51,93.51,0,0,0,10.53,16,150.2,150.2,0,0,0,14,14.68l-.59,1C45,166.88,32.68,157.47,24.51,145a56.74,56.74,0,0,1-8.33-20.62,86.22,86.22,0,0,1-1.06-22,87.88,87.88,0,0,1,4.27-21.19,103,103,0,0,1,9-19.33,117.62,117.62,0,0,1,12.35-17A147.73,147.73,0,0,1,55.51,30.27Z"/><path class="cls-9" d="M58.92,33.56c-1.59,4-3.37,7.91-5.08,11.84L51.2,51.25c-.9,1.93-1.78,3.87-2.62,5.8a58.15,58.15,0,0,0-2.13,5.86l-1.78,5.51a13.1,13.1,0,0,0-.72,5,9.31,9.31,0,0,0,.64,2.64A25.67,25.67,0,0,0,46,78.93l-.37.47a10.16,10.16,0,0,1-3.18-1.61A10,10,0,0,1,40,74.87a12.66,12.66,0,0,1-1.17-7.63c.62-5,3.39-8.61,5.53-12.37,1.11-1.87,2.24-3.7,3.38-5.53L51.21,44c2.42-3.55,4.75-7.14,7.18-10.68Z"/><path class="cls-9" d="M48,46.1a57.37,57.37,0,0,0-5.58,8.8,42,42,0,0,0-2.09,4.66,39.63,39.63,0,0,0-1.56,4.77A23.06,23.06,0,0,0,38,69.17c-.09,1.59-.2,3.12-.33,4.62a25.9,25.9,0,0,0,0,4.49A14,14,0,0,0,39,83l-.36.48a7,7,0,0,1-2.76-1.34,9.58,9.58,0,0,1-2.1-2.34,13.72,13.72,0,0,1-2-5.82,14.77,14.77,0,0,1,.47-5.9,48.11,48.11,0,0,1,2-5.36,43.75,43.75,0,0,1,2.53-5,47.27,47.27,0,0,1,3.14-4.52,44.47,44.47,0,0,1,7.68-7.59Z"/><path class="cls-9" d="M72.14,18c-3,4.94-6,9.85-8.63,14.94-1.37,2.51-2.65,5.06-3.88,7.63s-2.4,5.15-3.46,7.76a63.18,63.18,0,0,0-2.6,8c-.71,2.67-1.4,5.28-2,7.86a27.16,27.16,0,0,0-.8,7.64,11.36,11.36,0,0,0,3,7.1l-.31.52A9.1,9.1,0,0,1,49.34,77a12.19,12.19,0,0,1-2.66-4.22,21.42,21.42,0,0,1-1-9.53,31.63,31.63,0,0,1,2.28-8.87c1.17-2.78,2.52-5.43,3.87-8.06s2.79-5.17,4.32-7.66,3.15-4.92,4.83-7.3c3.39-4.73,6.92-9.33,10.7-13.71Z"/><path class="cls-9" d="M81.47,25.83q-2.22,3-4.24,6.12c-1.34,2.08-2.58,4.2-3.75,6.37s-2.26,4.34-3.25,6.57-1.94,4.46-2.72,6.74a48.57,48.57,0,0,0-1.82,6.94l-1.37,6.84a40.83,40.83,0,0,0-.83,6.74A15.25,15.25,0,0,0,64.71,79l-.42.42a8.85,8.85,0,0,1-3.1-2.75,13.86,13.86,0,0,1-1.88-3.77,22.7,22.7,0,0,1-1-8.14A26.31,26.31,0,0,1,60,57c.91-2.47,2-4.82,3.09-7.15S65.4,45.22,66.7,43,69.44,38.74,71,36.7A86.41,86.41,0,0,1,81,25.43Z"/><path class="cls-9" d="M82.91,17.34a10.89,10.89,0,0,0-3.22,3A37.86,37.86,0,0,0,77.1,24a81.06,81.06,0,0,0-4.35,7.92q-2,4.05-3.76,8.24c-1.18,2.77-2.29,5.57-3.3,8.4s-1.84,5.72-2.58,8.61-1.56,5.72-2.36,8.53a73.36,73.36,0,0,0-2,8.43,19.68,19.68,0,0,0-.31,4.17,7.55,7.55,0,0,0,1.15,4l-.37.47A7.34,7.34,0,0,1,55.82,79a17,17,0,0,1-1.28-4.9,34.84,34.84,0,0,1,.36-9.7,43.54,43.54,0,0,1,2.57-9.11c1.17-2.9,2.49-5.73,3.78-8.56s2.68-5.59,4.15-8.32,3.07-5.38,4.74-8a87.42,87.42,0,0,1,5.46-7.53,39.62,39.62,0,0,1,3.16-3.45,11.79,11.79,0,0,1,3.94-2.65Z"/><path class="cls-12" d="M53,36.4c-1.75,4-3.58,8-5.18,12a121.31,121.31,0,0,0-4.42,12.15c-.32,1-.54,2.06-.78,3.09s-.38,2.06-.54,3.09-.22,2-.36,3a12.4,12.4,0,0,0-.1,1.48,14.8,14.8,0,0,0-.07,1.48,18,18,0,0,0,.88,5.73,24.11,24.11,0,0,0,3.12,5.43l-.25.32a13.45,13.45,0,0,1-5.35-4.43A15.14,15.14,0,0,1,37.55,73a21.15,21.15,0,0,1,0-3.56A22.57,22.57,0,0,1,38.19,66c.31-1.1.6-2.21,1-3.26s.72-2.14,1.17-3.16c.78-2.1,1.71-4.11,2.62-6.12s2-4,3-5.87c2.11-3.86,4.32-7.63,6.64-11.34Z"/><path class="cls-12" d="M42.17,45.51c-3.74,5.75-7.46,11.69-9.85,18.15-1.45,3.91-2.44,8.48-.83,12.5a12.16,12.16,0,0,0,3.9,5.07c1.51,1.17,3.64-.94,2.12-2.13A9.46,9.46,0,0,1,34,74.33a13,13,0,0,1,.17-6.61C36.05,60.25,40.62,53.4,44.76,47c1.05-1.63-1.54-3.13-2.59-1.52Z"/><path class="cls-12" d="M74.09,16.82c-2.49,4.23-5,8.41-7.32,12.7-1.18,2.12-2.31,4.27-3.38,6.43s-2.12,4.32-3,6.5a42.94,42.94,0,0,0-2.14,6.66,64.26,64.26,0,0,0-1.29,6.37,13.33,13.33,0,0,0,.35,5.9,12.66,12.66,0,0,0,1.34,2.92,30.05,30.05,0,0,0,2.14,2.93l-.31.51a12.37,12.37,0,0,1-3.72-1.46,11.71,11.71,0,0,1-3.15-2.83,13.72,13.72,0,0,1-2.64-8.25,19.91,19.91,0,0,1,1.64-8,72.5,72.5,0,0,1,3.47-6.88,103.57,103.57,0,0,1,8.2-12.47c3-3.92,6.08-7.75,9.35-11.43Z"/><path class="cls-12" d="M86,16.45A55.52,55.52,0,0,0,74.73,28.86a62.57,62.57,0,0,0-7.49,14.85,53.49,53.49,0,0,0-2.12,8c-.5,2.69-.92,5.37-1.18,8a36.45,36.45,0,0,0,0,8,13.88,13.88,0,0,0,3,7.34l-.23.32a9.48,9.48,0,0,1-3.42-2.92,15.38,15.38,0,0,1-2.09-4.07,27.09,27.09,0,0,1-1.27-8.9c.06-6,2.06-11.66,4.32-17a64.92,64.92,0,0,1,8.86-14.88A53.92,53.92,0,0,1,85.8,16.12Z"/><path class="cls-12" d="M76.21,25.28a63,63,0,0,0-10.9,11.24,68.62,68.62,0,0,0-8,13.4A53.22,53.22,0,0,0,53,64.81a25.09,25.09,0,0,0,.11,7.69,14.21,14.21,0,0,0,1.26,3.63,10.42,10.42,0,0,0,2.42,3l-.06.08a10.13,10.13,0,0,1-2.76-2.85,14.85,14.85,0,0,1-1.54-3.7,24.77,24.77,0,0,1-.43-8,47,47,0,0,1,4.62-15.12A66.47,66.47,0,0,1,76.15,25.2Z"/><path class="cls-12" d="M88.18,17.7c-2.84,4.68-5.66,9.35-8.24,14.11Q78,35.37,76.23,39c-1.19,2.4-2.3,4.82-3.3,7.26a48.91,48.91,0,0,0-2.35,7.44l-1.77,7.12a22,22,0,0,0-.75,6.62,10.68,10.68,0,0,0,2.84,6.49l-.34.72a9.09,9.09,0,0,1-4.45-1.54,10.68,10.68,0,0,1-3.39-3.79,15.55,15.55,0,0,1-1.61-4.77,22.11,22.11,0,0,1-.23-4.78,23.93,23.93,0,0,1,2.24-8.71c1.23-2.67,2.66-5.16,4.06-7.61s2.9-4.83,4.46-7.14,3.26-4.52,5-6.7A163.57,163.57,0,0,1,87.55,17.21Z"/><path class="cls-13" d="M65,29.7a22.55,22.55,0,0,0-4.8,5.5,50.85,50.85,0,0,0-3.52,6.44c-1,2.22-2,4.49-2.83,6.79s-1.61,4.62-2.27,7a62.67,62.67,0,0,0-1.52,7.12c-.37,2.39-.74,4.75-1,7.1a35.86,35.86,0,0,0-.3,7A11.26,11.26,0,0,0,51,83.12l-.23.32a7.82,7.82,0,0,1-3-2.6A13,13,0,0,1,46,77.18,24.76,24.76,0,0,1,45,69.33c.11-5.24,1.8-10.15,3.49-14.9A78.94,78.94,0,0,1,54.91,40.7a55.17,55.17,0,0,1,4.3-6.23,21.7,21.7,0,0,1,5.57-5.11Z"/><path class="cls-9" d="M92.78,13.74c-3,4.6-5.93,9.17-8.58,13.9A147,147,0,0,0,76.88,42a56.19,56.19,0,0,0-2.56,7.46C73.64,52,73,54.4,72.49,56.79c-1,4.78-1.17,9.4,3,13.32l-.26.54a9.35,9.35,0,0,1-4.15-1.76,10.54,10.54,0,0,1-3.06-3.71,15.34,15.34,0,0,1-1.39-4.58A21,21,0,0,1,66.55,56a26.53,26.53,0,0,1,2.17-8.51c1.16-2.64,2.5-5.13,3.85-7.59s2.81-4.83,4.32-7.15S80,28.19,81.7,26c3.38-4.36,6.87-8.59,10.61-12.61Z"/><path class="cls-14" d="M57.78,21.62c-1.88,4.93-3.91,9.79-5.8,14.7Q50.5,40,49.1,43.64c-1,2.43-1.87,4.87-2.71,7.31a59.5,59.5,0,0,0-2,7.36,69.6,69.6,0,0,0-1.19,7,15.78,15.78,0,0,0,.58,6.54,32.37,32.37,0,0,0,3.39,6.76l-.39.46a16,16,0,0,1-6.74-5.22A15.06,15.06,0,0,1,38,69.72a17.4,17.4,0,0,1-.76-4.54,22.64,22.64,0,0,1,1.48-8.51c1-2.61,2.13-5.07,3.24-7.51,2.23-4.87,4.75-9.52,7.33-14.13s5.23-9.16,8-13.67Z"/><path class="cls-14" d="M46.29,35c-1.69,3.83-3.53,7.58-5.06,11.43-.84,1.9-1.57,3.83-2.31,5.74L37.87,55l-.93,2.88a35.45,35.45,0,0,0-1.16,5.8,13.64,13.64,0,0,0-.16,1.4c-.06.47-.11.93-.19,1.39s-.06.89-.11,1.34a10.26,10.26,0,0,0-.12,1.33l-.08,1.31c0,.43,0,.85,0,1.29l0,.66c0,.21.07.42.1.64.08.42.08.89.2,1.31a25.36,25.36,0,0,0,2.14,5.56l-.38.46a11.65,11.65,0,0,1-5.58-4.18,12.54,12.54,0,0,1-.94-1.59l-.43-.83c-.11-.29-.2-.58-.3-.87-.19-.59-.38-1.19-.53-1.78l-.26-1.81a9.9,9.9,0,0,1-.07-1.8c0-.59,0-1.18.09-1.77A28.27,28.27,0,0,1,30,62.41c.71-2.16,1.6-4.18,2.46-6.17.46-1,.91-2,1.38-2.92l1.48-2.84c1.07-1.85,2.12-3.69,3.27-5.46,2.29-3.55,4.68-7,7.21-10.35Z"/><path class="cls-14" d="M73.06,11c-3.16,5.59-6.35,11.15-9.26,16.84-1.48,2.83-2.91,5.68-4.25,8.55s-2.66,5.75-3.8,8.67A62.25,62.25,0,0,0,53,53.93a72.79,72.79,0,0,0-1.62,8.71A20,20,0,0,0,52,70.92a21.17,21.17,0,0,0,4.72,7.66l-.33.5a16.34,16.34,0,0,1-4.53-2.36,14.92,14.92,0,0,1-3.65-3.93,18.94,18.94,0,0,1-2.83-10.43A29.52,29.52,0,0,1,47.3,52.21a98.5,98.5,0,0,1,4.06-9.1A148.54,148.54,0,0,1,61.22,26.3C64.86,21,68.6,15.72,72.56,10.65Z"/><path class="cls-14" d="M96.94,3q-3.41,4.19-6.52,8.55c-2.09,2.9-4,5.9-5.88,8.94s-3.62,6.13-5.25,9.28-3.19,6.32-4.56,9.57a82.08,82.08,0,0,0-3.45,9.92c-1,3.34-1.87,6.65-2.64,9.95-.41,1.66-.7,3.31-1,5a36.06,36.06,0,0,0-.36,5,15.27,15.27,0,0,0,2.81,9.45l-.37.47a11.3,11.3,0,0,1-4.32-3.88c-.25-.42-.55-.84-.76-1.29L64,72.55c-.2-.46-.33-.93-.49-1.4a12.22,12.22,0,0,1-.41-1.43,31,31,0,0,1-.4-11.53,44.59,44.59,0,0,1,2.93-10.85c1.41-3.45,3-6.76,4.72-10A128.1,128.1,0,0,1,82.06,18.82,135.81,135.81,0,0,1,96.5,2.61Z"/><path class="cls-14" d="M87.38,3q-3.25,4.26-6.3,8.64t-5.71,9c-1.81,3-3.52,6.14-5.1,9.29s-3.07,6.34-4.39,9.58a77.52,77.52,0,0,0-3.25,9.91c-.88,3.34-1.7,6.64-2.35,9.94a40.34,40.34,0,0,0-.93,9.86,16.44,16.44,0,0,0,3.13,9.36l-.37.47C58.67,77.43,56.2,73.75,55.2,70a29.84,29.84,0,0,1-.86-11.48A42.16,42.16,0,0,1,57,47.62c1.34-3.47,2.91-6.79,4.53-10.06s3.39-6.47,5.29-9.56,3.95-6.08,6.08-9A149.83,149.83,0,0,1,86.93,2.62Z"/><path class="cls-14" d="M101.75,1.66C98,7.76,94.26,13.86,90.91,20.15A193.94,193.94,0,0,0,81.74,39.3a79,79,0,0,0-3.26,9.94c-.88,3.33-1.69,6.63-2.26,9.9L76,60.36l-.15,1.22c-.14.82-.14,1.62-.22,2.44a26.12,26.12,0,0,0,.23,4.77,14.17,14.17,0,0,0,4.74,8.44l-.28.53a11.93,11.93,0,0,1-5-2.76,14.32,14.32,0,0,1-3.44-5,21.56,21.56,0,0,1-1.5-5.8,32.49,32.49,0,0,1-.07-5.83,39.68,39.68,0,0,1,2.57-11c1.33-3.47,2.92-6.79,4.52-10.07s3.36-6.46,5.18-9.59,3.8-6.16,5.81-9.15c4.09-6,8.36-11.74,12.92-17.29Z"/><path class="cls-15" d="M2.61,102.32A100.76,100.76,0,0,1,5.4,86.74a144.72,144.72,0,0,1,4.77-15.16A152.19,152.19,0,0,1,16.62,57,146,146,0,0,1,24.71,43.2a158.76,158.76,0,0,1,9.5-13A77.27,77.27,0,0,1,45.76,18.88a80.17,80.17,0,0,1,13.63-8.71,64.8,64.8,0,0,1,15.1-5.5l.27.64c-4.4,3-8.67,5.91-12.75,9.05s-8,6.4-11.72,9.85-7.35,7-10.93,10.63A113.89,113.89,0,0,0,29.28,46.43a143.34,143.34,0,0,0-8.59,12.83A150.65,150.65,0,0,0,13.39,73,130.07,130.07,0,0,0,3.3,102.42Z"/><path class="cls-14" d="M43.24,23.55c-6.91,5.07-12,12.14-15.59,19.73a80,80,0,0,0-4.56,11.77,92.65,92.65,0,0,0-2.9,12.27,86.31,86.31,0,0,0-1.14,12.51q-.18,6.27-.07,12.5c.08,4.16.32,8.33.81,12.5s1.22,8.34,2.14,12.61l-.55.24a44.82,44.82,0,0,1-5.71-11.94A63.06,63.06,0,0,1,13,92.7a62.24,62.24,0,0,1,.13-13.3,121.34,121.34,0,0,1,2.36-13,98.73,98.73,0,0,1,3.84-12.62A82.51,82.51,0,0,1,25,41.87,62.8,62.8,0,0,1,32.8,31.28,42.58,42.58,0,0,1,42.91,23Z"/><path class="cls-10" d="M129.71,21.8a366.32,366.32,0,0,1,22.16,32.06c6.77,11.15,12.94,22.83,17.25,35.58a99.76,99.76,0,0,1,4.86,20,44.78,44.78,0,0,1-2.56,21.35,52.28,52.28,0,0,1-2.28,5c-.44.8-.92,1.57-1.38,2.34a22.69,22.69,0,0,1-1.5,2.26,46.31,46.31,0,0,1-7,7.89A58.93,58.93,0,0,1,142,158.94l-.72-1c4.08-5.26,8.21-10.14,11.49-15.27.43-.63.84-1.26,1.2-1.92s.79-1.27,1.15-1.91c.67-1.32,1.41-2.58,2-3.91a43.44,43.44,0,0,0,2.9-8c.42-1.33.61-2.73.94-4.08l.33-2.07.17-1,.11-1.06c.06-.7.17-1.4.25-2.11l.13-2.14c.15-1.43.09-2.9.15-4.35a72.27,72.27,0,0,0-2.21-18,140.51,140.51,0,0,0-5.8-17.88c-.55-1.49-1.12-3-1.74-4.43l-1.83-4.41c-1.3-2.91-2.55-5.85-4-8.72-5.42-11.61-11.56-23-17.87-34.24Z"/><path class="cls-11" d="M131.22,21.73a177.47,177.47,0,0,1,13.52,15.43,166.87,166.87,0,0,1,11.51,17.17,142.7,142.7,0,0,1,8.95,18.85,115.82,115.82,0,0,1,5.69,20.34A101.45,101.45,0,0,1,172.67,115a54.32,54.32,0,0,1-5.19,21.51,46.78,46.78,0,0,1-14.25,17.3A37.94,37.94,0,0,1,132.88,161l-.33-1.15a58.45,58.45,0,0,0,15-12.29,53.43,53.43,0,0,0,8.93-15.76,98.34,98.34,0,0,0,4.38-17.84,74.08,74.08,0,0,0,.55-19.08,107.82,107.82,0,0,0-3.76-19.16,135.4,135.4,0,0,0-6.73-18.65,172.37,172.37,0,0,0-9.26-17.77L139,35c-.87-1.44-1.87-2.8-2.8-4.21-1.82-2.84-3.89-5.51-5.86-8.27Z"/><path class="cls-11" d="M126.81,18.89c3.24,1.81,6.42,3.76,9.5,5.88a109,109,0,0,1,8.82,7,93.37,93.37,0,0,1,14.93,17.07,95.35,95.35,0,0,1,10.41,20.42,103.22,103.22,0,0,1,5.27,22.46,116.63,116.63,0,0,1,.53,23.27,71,71,0,0,1-5.75,22.77,61.65,61.65,0,0,1-13.39,19.61,40.22,40.22,0,0,1-9.78,7,33.35,33.35,0,0,1-5.61,2.1,23.76,23.76,0,0,1-5.83.77l-.27-1.17c6.62-3.33,11.28-8.5,15-14.18a79.86,79.86,0,0,0,8.67-18.49,157.65,157.65,0,0,0,5.16-20,87.17,87.17,0,0,0,1.67-20.87,93.92,93.92,0,0,0-3.3-20.83A88.38,88.38,0,0,0,154.94,52a90.53,90.53,0,0,0-12.46-17.53,105.61,105.61,0,0,0-16.31-14.52Z"/><path class="cls-11" d="M126.81,26.68c3.24,1.81,6.42,3.76,9.5,5.88a109,109,0,0,1,8.82,7,93.37,93.37,0,0,1,14.93,17.07A95.35,95.35,0,0,1,170.47,77a103.22,103.22,0,0,1,5.27,22.46,116.63,116.63,0,0,1,.53,23.27,71,71,0,0,1-5.75,22.77,61.65,61.65,0,0,1-13.39,19.61,40.22,40.22,0,0,1-9.78,7,33.35,33.35,0,0,1-5.61,2.1,23.76,23.76,0,0,1-5.83.77l-.27-1.17c6.62-3.33,11.28-8.5,15-14.18a79.86,79.86,0,0,0,8.67-18.49,157.65,157.65,0,0,0,5.16-20,87.17,87.17,0,0,0,1.67-20.87,93.92,93.92,0,0,0-3.3-20.83,88.38,88.38,0,0,0-7.93-19.72,90.53,90.53,0,0,0-12.46-17.53A105.61,105.61,0,0,0,126.17,27.7Z"/><path class="cls-12" d="M130.41,18.58a148.81,148.81,0,0,1,14.81,14.59,117.51,117.51,0,0,1,12.35,17,102.9,102.9,0,0,1,9,19.32,88,88,0,0,1,4.27,21.2,86.24,86.24,0,0,1-1.06,22,56.81,56.81,0,0,1-8.33,20.62c-8.17,12.46-20.52,21.88-34.24,25.66l-.59-1a147.91,147.91,0,0,0,14-14.68,92.84,92.84,0,0,0,10.53-16c1.48-2.78,2.73-5.65,3.95-8.53.61-1.44,1.13-2.91,1.71-4.37s1-3,1.49-4.47a64,64,0,0,0,3-18.84,79.51,79.51,0,0,0-2.35-19.33A95.61,95.61,0,0,0,152.27,53a116.79,116.79,0,0,0-10-17.5,166.73,166.73,0,0,0-12.67-16Z"/><path class="cls-12" d="M134.31,32.6a147.75,147.75,0,0,1,14.8,14.6,117.68,117.68,0,0,1,12.36,17,103.53,103.53,0,0,1,9,19.32,89,89,0,0,1,4.27,21.2,86.7,86.7,0,0,1-1.06,22,57,57,0,0,1-8.34,20.62c-8.17,12.47-20.52,21.88-34.24,25.66l-.58-1a149,149,0,0,0,13.94-14.69,92.9,92.9,0,0,0,10.54-16c1.47-2.78,2.72-5.65,3.95-8.52.6-1.45,1.13-2.92,1.71-4.38s1-3,1.48-4.47a64,64,0,0,0,3-18.83,79.38,79.38,0,0,0-2.34-19.33A96.12,96.12,0,0,0,156.17,67a117.67,117.67,0,0,0-10-17.5,171.2,171.2,0,0,0-12.67-16Z"/><path class="cls-14" d="M141.45,15.25a42.83,42.83,0,0,1,10.12,8.24,62.75,62.75,0,0,1,7.78,10.59A82.51,82.51,0,0,1,165,46a97.15,97.15,0,0,1,3.84,12.62,121.34,121.34,0,0,1,2.36,13,62.24,62.24,0,0,1,.13,13.3,63,63,0,0,1-2.67,13A45.12,45.12,0,0,1,163,109.89l-.55-.24c.92-4.27,1.64-8.43,2.13-12.61a125.06,125.06,0,0,0,.81-12.5c.08-4.16.05-8.32-.06-12.5a89.22,89.22,0,0,0-1.14-12.51,94.28,94.28,0,0,0-2.91-12.27,80,80,0,0,0-4.56-11.77c-3.62-7.59-8.67-14.66-15.58-19.73Z"/><path class="cls-14" d="M159.74,81.81A42.73,42.73,0,0,1,164.43,94,63,63,0,0,1,165.94,107a83.85,83.85,0,0,1-1,13.14A99.71,99.71,0,0,1,162,133a120.38,120.38,0,0,1-4.42,12.49,62.51,62.51,0,0,1-6.48,11.6,63.36,63.36,0,0,1-8.8,10,44.43,44.43,0,0,1-10.89,7.53l-.35-.48c2.91-3.24,5.61-6.5,8.11-9.88s4.77-6.88,6.91-10.45,4.17-7.2,6.14-10.88a87.4,87.4,0,0,0,5.23-11.43,95.3,95.3,0,0,0,3.57-12.09A80.8,80.8,0,0,0,162.94,107c.62-8.38-.25-17-3.74-24.86Z"/><path class="cls-14" d="M170.64,90.38a42.75,42.75,0,0,1,4.7,12.17,63,63,0,0,1,1.5,13.06,82.66,82.66,0,0,1-1,13.14A98,98,0,0,1,173,141.61a120.38,120.38,0,0,1-4.42,12.49A62,62,0,0,1,162,165.7a63.29,63.29,0,0,1-8.79,10,44.62,44.62,0,0,1-10.89,7.53l-.36-.48c2.92-3.24,5.62-6.5,8.12-9.88s4.77-6.88,6.9-10.45,4.17-7.2,6.15-10.88a87.34,87.34,0,0,0,5.22-11.43A93.69,93.69,0,0,0,172,128a79.61,79.61,0,0,0,1.88-12.49c.63-8.38-.25-17-3.73-24.86Z"/><path class="cls-14" d="M146.18,114.31a25.77,25.77,0,0,1,2.84,7.75,40.46,40.46,0,0,1,.81,8.29,56.48,56.48,0,0,1-.71,8.31,69.2,69.2,0,0,1-1.92,8.14c-.8,2.67-1.67,5.34-2.72,7.95a33.3,33.3,0,0,1-4.13,7.36,37.36,37.36,0,0,1-5.78,6.21,25.24,25.24,0,0,1-7.24,4.42l-.37-.47c3.14-4.61,5.87-8.91,8.36-13.44,1.25-2.24,2.52-4.46,3.83-6.69a55.16,55.16,0,0,0,3.53-6.94,64.43,64.43,0,0,0,2.54-7.39,52.69,52.69,0,0,0,1.62-7.66,32.6,32.6,0,0,0-1.2-15.58Z"/><path class="cls-10" d="M99.18,4.14a227,227,0,0,1,24.93,9.3,112.67,112.67,0,0,1,23.55,13.67c1.85,1.44,3.66,3,5.46,4.59.89.82,1.75,1.71,2.63,2.57s1.68,1.84,2.47,2.84a30.43,30.43,0,0,1,4,6.66,26.61,26.61,0,0,1,2,7.73,30,30,0,0,1-2.43,15c-.46,1.14-1,2.19-1.6,3.25s-1.21,2.06-1.9,3a34.45,34.45,0,0,1-2.15,2.79,30.94,30.94,0,0,1-2.43,2.57l-1.08-.5c.24-4.69.85-9,.91-13.08a36.65,36.65,0,0,0-1.16-11.07,47.38,47.38,0,0,0-4-9.73,39.42,39.42,0,0,0-7.06-9.45,86,86,0,0,0-9.54-8.18c-3.37-2.61-6.9-5.09-10.55-7.43C114,13.93,106.38,9.57,98.71,5.25Z"/><path class="cls-11" d="M99.11,4.12a112.74,112.74,0,0,1,13.66,3.32A107.32,107.32,0,0,1,126,12.64,91.7,91.7,0,0,1,138.47,20a73.16,73.16,0,0,1,11.05,9.76A63.82,63.82,0,0,1,158.6,42a32.38,32.38,0,0,1,4.11,15.35,30.65,30.65,0,0,1-4,15.56,26,26,0,0,1-11.06,10.44l-.86-.85a52.18,52.18,0,0,0,4-12.62,36.16,36.16,0,0,0-.06-11.66,14,14,0,0,0-.27-1.41c-.1-.47-.16-.95-.26-1.41-.27-.94-.41-1.88-.7-2.82s-.47-1.88-.8-2.82c-.15-.47-.28-1-.41-1.43l-.52-1.42a41.24,41.24,0,0,0-5.68-11.1,63.59,63.59,0,0,0-8.67-9.66A85.28,85.28,0,0,0,123,17.84a111.43,111.43,0,0,0-11.68-6.92l-3.07-1.53c-1-.51-2.08-.94-3.13-1.42-2.07-1-4.23-1.8-6.37-2.7Z"/><path class="cls-11" d="M96.52,2.82a76.31,76.31,0,0,1,15.41,0,66.63,66.63,0,0,1,15.26,3.7,60.16,60.16,0,0,1,14.07,7.62A64.6,64.6,0,0,1,153,25.36a74.27,74.27,0,0,1,9,13.77,42.34,42.34,0,0,1,4.28,16.09,38.65,38.65,0,0,1-2.48,16.72,27.31,27.31,0,0,1-4.29,7.39c-.49.53-1,1.06-1.44,1.57a16.37,16.37,0,0,1-1.61,1.39,17.15,17.15,0,0,1-3.51,2.19l-.81-.88a31.7,31.7,0,0,0,2.52-6.84,34.36,34.36,0,0,0,.89-6.77,53.69,53.69,0,0,0-1.18-13.32c-.91-4.38-2-8.71-3.38-13.07A50.28,50.28,0,0,0,145.21,31a56.39,56.39,0,0,0-9-10.71A53.65,53.65,0,0,0,124.69,12a65.1,65.1,0,0,0-13.47-5.46l-3.59-.88c-1.2-.32-2.43-.44-3.65-.68l-1.84-.32c-.62-.11-1.24-.15-1.86-.22L96.54,4Z"/><path class="cls-12" d="M99.06,4.1a102,102,0,0,1,14.09,2.33,80.12,80.12,0,0,1,13.71,4.76,66.81,66.81,0,0,1,12.72,7.65,55.66,55.66,0,0,1,10.57,11,54.37,54.37,0,0,1,7.42,13.85,35.53,35.53,0,0,1,1.68,15.77,41.54,41.54,0,0,1-4.67,14.82A36.63,36.63,0,0,1,145,85.83l-1-.64c1-4.85,2-9.31,2.62-13.69a73.33,73.33,0,0,0,.71-12.68,97.25,97.25,0,0,0-1.17-12.08,35.71,35.71,0,0,0-4-11.72,46.59,46.59,0,0,0-7.78-10.2A59.75,59.75,0,0,0,124,16.45,79.63,79.63,0,0,0,112,10,123.72,123.72,0,0,0,98.84,5.28Z"/><path class="cls-14" d="M92.81,9.38c5.91-.52,11.91,1,17.36,3.5a53.19,53.19,0,0,1,7.8,4.51,61.67,61.67,0,0,1,7,5.76,78.22,78.22,0,0,1,6.24,6.62A34.88,34.88,0,0,1,136,37.56a36.43,36.43,0,0,1,2.66,8.79,25.7,25.7,0,0,1,0,9.13l-.59.05a101.51,101.51,0,0,0-7.41-15.23c-1.41-2.37-2.84-4.71-4.3-7.06a48.9,48.9,0,0,0-4.88-6.78,56.27,56.27,0,0,0-5.94-5.92,49.63,49.63,0,0,0-6.77-5A35.16,35.16,0,0,0,92.82,10Z"/><path class="cls-8" d="M157.39,74.49a64.91,64.91,0,0,0-2.47-7.94,28.12,28.12,0,0,0-1.71-3.63,15.06,15.06,0,0,0-2.13-3.09,4.28,4.28,0,0,0-2.48-1.48,4.37,4.37,0,0,0-2,.27,11.6,11.6,0,0,0-2.85,1.74c-1,.78-2.09,1.72-3.35,2.64l-.45-.22a11,11,0,0,1,1-4.54,9.38,9.38,0,0,1,3.22-4,6.85,6.85,0,0,1,2.9-1.09,6.32,6.32,0,0,1,3.21.52,9.74,9.74,0,0,1,4,3.7,22.11,22.11,0,0,1,3.07,8.48,44.17,44.17,0,0,1,.57,8.56Z"/><path class="cls-8" d="M158.12,82.47a63.76,63.76,0,0,0-2.48-7.94,28.08,28.08,0,0,0-1.7-3.63,14.72,14.72,0,0,0-2.13-3.08,3.68,3.68,0,0,0-4.45-1.22,12,12,0,0,0-2.86,1.74c-1,.78-2.08,1.72-3.34,2.64l-.45-.22a10.84,10.84,0,0,1,1-4.54,9.38,9.38,0,0,1,3.22-4,6.71,6.71,0,0,1,2.9-1.08,6.21,6.21,0,0,1,3.21.51,9.81,9.81,0,0,1,4,3.7,22.34,22.34,0,0,1,3.07,8.48,44.17,44.17,0,0,1,.57,8.56Z"/><path class="cls-15" d="M20.53,98.42a99.79,99.79,0,0,1,2.79-15.58,145.24,145.24,0,0,1,4.76-15.15,153.85,153.85,0,0,1,6.46-14.58A149.43,149.43,0,0,1,42.62,39.3a157,157,0,0,1,9.51-13A76.8,76.8,0,0,1,63.67,15,81.28,81.28,0,0,1,77.31,6.27,65.55,65.55,0,0,1,92.41.77l.27.65c-4.4,3-8.68,5.91-12.75,9.05s-8,6.39-11.72,9.84-7.36,7-10.93,10.63A112.51,112.51,0,0,0,47.2,42.53a142.79,142.79,0,0,0-8.59,12.84,149.34,149.34,0,0,0-7.3,13.69A128.85,128.85,0,0,0,21.22,98.52Z"/><path class="cls-16" d="M20.63,85.16a237.23,237.23,0,0,1,7.64-27.47A108.3,108.3,0,0,1,41.26,32a80.82,80.82,0,0,1,9.42-11.18A55.48,55.48,0,0,1,62.44,12c1.08-.58,2.18-1.12,3.27-1.68s2.22-1,3.34-1.51a65.32,65.32,0,0,1,6.89-2.4A63.34,63.34,0,0,1,90.16,4l.1.49c-4.49,1.66-8.87,3.34-13.1,5.27-2.12,1-4.19,2-6.22,3.09-1,.58-2,1.09-3,1.68S66,15.69,65,16.31a100.53,100.53,0,0,0-11,8.16,68.47,68.47,0,0,0-9.55,9.92A104.44,104.44,0,0,0,30.6,58.6a264.07,264.07,0,0,0-9.49,26.69Z"/><path class="cls-16" d="M22.19,89.06a237.39,237.39,0,0,1,7.64-27.48,107.93,107.93,0,0,1,13-25.69,82,82,0,0,1,9.42-11.18A55.52,55.52,0,0,1,64,15.92c1.08-.58,2.18-1.13,3.27-1.69s2.22-1,3.34-1.5a66,66,0,0,1,6.88-2.41A64.69,64.69,0,0,1,91.71,7.86l.1.49C87.33,10,83,11.69,78.71,13.62c-2.11,1-4.19,2-6.21,3.09-1,.58-2,1.09-3,1.68s-2,1.2-2.92,1.82a100.44,100.44,0,0,0-11,8.15A69,69,0,0,0,46,38.28,105.59,105.59,0,0,0,32.15,62.49a266.67,266.67,0,0,0-9.48,26.7Z"/><path class="cls-12" d="M14,105.89a72.66,72.66,0,0,1,.58-16.14,136.76,136.76,0,0,1,3.15-15.88,162.15,162.15,0,0,1,4.93-15.45,147.19,147.19,0,0,1,6.64-14.87,142.67,142.67,0,0,1,8.26-14.16,69.93,69.93,0,0,1,10.8-12.53A57,57,0,0,1,62.12,7.54a39.65,39.65,0,0,1,16-4l.11.59a61.71,61.71,0,0,0-14,7.09,75.64,75.64,0,0,0-11.73,10A146.11,146.11,0,0,0,42.31,32.9a110,110,0,0,0-8.85,13A143.3,143.3,0,0,0,26.3,59.94a154.86,154.86,0,0,0-5.74,14.79,132.6,132.6,0,0,0-4.21,15.33c-.28,1.3-.49,2.61-.74,3.91s-.41,2.62-.56,3.94a64,64,0,0,0-.5,8Z"/><path class="cls-12" d="M26.42,107.45A72.66,72.66,0,0,1,27,91.31a136.35,136.35,0,0,1,3.15-15.88A159.41,159.41,0,0,1,35.08,60a146.13,146.13,0,0,1,6.63-14.87A140.83,140.83,0,0,1,50,31a68.79,68.79,0,0,1,10.8-12.53A57.17,57.17,0,0,1,74.58,9.1a39.91,39.91,0,0,1,16-4l.11.59a62.16,62.16,0,0,0-14,7.1,76.61,76.61,0,0,0-11.73,10A148,148,0,0,0,54.77,34.46a107.89,107.89,0,0,0-8.84,12.95A140.06,140.06,0,0,0,38.77,61.5,155.79,155.79,0,0,0,33,76.28a133.27,133.27,0,0,0-4.2,15.34c-.29,1.3-.49,2.6-.74,3.91s-.41,2.62-.56,3.94a61.9,61.9,0,0,0-.51,7.94Z"/><path class="cls-9" d="M89.14,4.1a11,11,0,0,0-3.22,3,41.68,41.68,0,0,0-2.59,3.67A87,87,0,0,0,79,18.65c-1.35,2.7-2.59,5.45-3.75,8.23s-2.29,5.58-3.31,8.41-1.84,5.72-2.58,8.6S67.78,49.61,67,52.43a71.69,71.69,0,0,0-2,8.42,19.81,19.81,0,0,0-.3,4.18,7.57,7.57,0,0,0,1.14,4l-.37.47a7.2,7.2,0,0,1-3.42-3.76,16.84,16.84,0,0,1-1.29-4.9,34.87,34.87,0,0,1,.36-9.7A43.45,43.45,0,0,1,63.7,42c1.17-2.91,2.49-5.74,3.78-8.56s2.69-5.59,4.15-8.32,3.07-5.38,4.74-8a87.27,87.27,0,0,1,5.46-7.52A39.62,39.62,0,0,1,85,6.19a11.5,11.5,0,0,1,3.94-2.65Z"/><path class="cls-9" d="M157.36,68.66a15.88,15.88,0,0,0-3.84-6.12,20.1,20.1,0,0,0-2.65-2.33A15.1,15.1,0,0,0,148,58.45a6.3,6.3,0,0,0-2.83-.62c-.84,0-1.29.09-1.76.14a3.76,3.76,0,0,0-2,1c-.83.68-1.66,1.64-2.75,2.71l-.59-.11a7.73,7.73,0,0,1-.44-4.53,6.83,6.83,0,0,1,3.12-4.44,6.57,6.57,0,0,1,2.91-.94,7.25,7.25,0,0,1,2.76.37,14.84,14.84,0,0,1,4.14,2.35,19.45,19.45,0,0,1,3.09,3A22.33,22.33,0,0,1,156,60.81a15.08,15.08,0,0,1,2,7.78Z"/><path class="cls-14" d="M92.81,18c5.91-.52,11.91,1,17.36,3.5A53.19,53.19,0,0,1,118,26a61.67,61.67,0,0,1,7,5.76,78.22,78.22,0,0,1,6.24,6.62A34.88,34.88,0,0,1,136,46.13a36.43,36.43,0,0,1,2.66,8.79,25.7,25.7,0,0,1,0,9.13l-.59,0a101.51,101.51,0,0,0-7.41-15.23c-1.41-2.37-2.84-4.71-4.3-7.06A48.9,48.9,0,0,0,121.46,35a56.27,56.27,0,0,0-5.94-5.92,49.63,49.63,0,0,0-6.77-5,35.16,35.16,0,0,0-15.93-5.54Z"/><path class="cls-8" d="M88.14,18c5.89-.44,11.84,1.16,17.23,3.67a51.6,51.6,0,0,1,7.72,4.55A62,62,0,0,1,120,32a77,77,0,0,1,6.12,6.64,36.33,36.33,0,0,1,4.77,7.73A37.59,37.59,0,0,1,133.62,55a26.81,26.81,0,0,1,.3,9l-.5,0c-1-2.81-2-5.46-3.16-8s-2.46-5-3.85-7.43-2.84-4.77-4.34-7.12a51.46,51.46,0,0,0-5-6.76,58.12,58.12,0,0,0-6-5.92,50.67,50.67,0,0,0-6.85-5A35.3,35.3,0,0,0,88.14,18.5Z"/><path class="cls-9" d="M96.34,18.25A11.57,11.57,0,0,1,101,19.3a39.75,39.75,0,0,1,4.19,2.07,87.36,87.36,0,0,1,7.81,5q3.77,2.74,7.31,5.74t6.88,6.25c2.23,2.17,4.47,4.33,6.62,6.62a43.55,43.55,0,0,1,5.69,7.55,34.86,34.86,0,0,1,3.84,8.92,16.8,16.8,0,0,1,.57,5,7.23,7.23,0,0,1-1.83,4.74l-.52-.3a7.6,7.6,0,0,0-.37-4.14A20.65,20.65,0,0,0,139.37,63a72.38,72.38,0,0,0-4.9-7.14c-1.75-2.34-3.54-4.69-5.27-7.11s-3.55-4.82-5.52-7.09-4-4.48-6.12-6.64-4.25-4.29-6.48-6.32a84.76,84.76,0,0,0-6.92-5.81,40,40,0,0,0-3.75-2.49,11,11,0,0,0-4.07-1.59Z"/><path class="cls-14" d="M143.06,59.44a35.17,35.17,0,0,0-5.55-15.93,49.56,49.56,0,0,0-5-6.77,57.34,57.34,0,0,0-5.93-5.94,50.35,50.35,0,0,0-6.77-4.89c-2.36-1.45-4.7-2.88-7.06-4.29A101.63,101.63,0,0,0,97.5,14.21l.06-.6a25.7,25.7,0,0,1,9.13,0,36.7,36.7,0,0,1,8.79,2.66,33.89,33.89,0,0,1,7.78,4.81,76.86,76.86,0,0,1,6.63,6.24,60.79,60.79,0,0,1,5.76,7,52.67,52.67,0,0,1,4.51,7.8c2.46,5.45,4,11.45,3.5,17.36Z"/><path class="cls-8" d="M143.11,64.11a35.26,35.26,0,0,0-5.37-16,50.74,50.74,0,0,0-5-6.85,57,57,0,0,0-5.91-6,51.9,51.9,0,0,0-6.76-5c-2.36-1.5-4.72-2.94-7.12-4.34s-4.87-2.69-7.44-3.86-5.21-2.18-8-3.16l0-.49a26.87,26.87,0,0,1,9,.29,38.43,38.43,0,0,1,8.67,2.77A36.88,36.88,0,0,1,123,26.16a74.28,74.28,0,0,1,6.64,6.13,61.19,61.19,0,0,1,5.78,6.88,53.81,53.81,0,0,1,4.55,7.71c2.51,5.39,4.1,11.35,3.67,17.24Z"/><path class="cls-9" d="M142.75,55.91a10.66,10.66,0,0,0-1.59-4.06,38.59,38.59,0,0,0-2.48-3.75,83.41,83.41,0,0,0-5.81-6.92c-2-2.24-4.15-4.39-6.33-6.48s-4.37-4.15-6.64-6.12-4.66-3.79-7.09-5.52-4.76-3.52-7.1-5.28a75.29,75.29,0,0,0-7.14-4.89,19.81,19.81,0,0,0-3.79-1.79,7.5,7.5,0,0,0-4.14-.38l-.3-.52a7.31,7.31,0,0,1,4.75-1.83,17.16,17.16,0,0,1,5,.57A35.32,35.32,0,0,1,109,12.79a43.7,43.7,0,0,1,7.56,5.68c2.29,2.15,4.45,4.4,6.61,6.63s4.25,4.52,6.26,6.88,3.91,4.8,5.73,7.3a86.74,86.74,0,0,1,5,7.82,39.82,39.82,0,0,1,2.08,4.19,11.69,11.69,0,0,1,1,4.63Z"/><path class="cls-14" d="M157.82,71.72a68.61,68.61,0,0,0-2.67-7.87,27.59,27.59,0,0,0-1.77-3.57,14.14,14.14,0,0,0-2.14-3A3.64,3.64,0,0,0,148.9,56a5.92,5.92,0,0,0-.69.06,8,8,0,0,0-.86.19,11.3,11.3,0,0,0-2.82,1.51c-1.08.71-2.19,1.59-3.58,2.45l-.54-.26a10.37,10.37,0,0,1,.73-4.74,9.33,9.33,0,0,1,3.26-4.19,7.11,7.11,0,0,1,3.08-1.17,6.76,6.76,0,0,1,3.44.57A10.24,10.24,0,0,1,155,54.38,22.32,22.32,0,0,1,158,63a43.09,43.09,0,0,1,.37,8.62Z"/><path class="cls-17" d="M157.58,78.15a65.11,65.11,0,0,0-2.67-7.88,27.53,27.53,0,0,0-1.76-3.57,14.07,14.07,0,0,0-2.15-3,3.57,3.57,0,0,0-2.33-1.26,4.32,4.32,0,0,0-.69.06c-.21,0-.49.07-.86.18a11.13,11.13,0,0,0-2.82,1.51c-1.08.72-2.19,1.6-3.59,2.45l-.53-.26a10.18,10.18,0,0,1,.73-4.73,9.23,9.23,0,0,1,3.26-4.2,7.22,7.22,0,0,1,3.08-1.16,6.65,6.65,0,0,1,3.44.56,10.32,10.32,0,0,1,4.12,3.93,22.09,22.09,0,0,1,3,8.65,43.13,43.13,0,0,1,.38,8.62Z"/><path class="cls-14" d="M152.13,67.24a67.52,67.52,0,0,0-2.67-7.88,28.06,28.06,0,0,0-1.76-3.56,14.61,14.61,0,0,0-2.15-3,3.57,3.57,0,0,0-2.33-1.26,5.72,5.72,0,0,0-.69.06c-.21.05-.49.07-.87.18a11.7,11.7,0,0,0-2.81,1.52c-1.09.71-2.2,1.59-3.59,2.45l-.54-.27a10.35,10.35,0,0,1,.74-4.73,9.26,9.26,0,0,1,3.26-4.19,7,7,0,0,1,3.08-1.17,6.55,6.55,0,0,1,3.44.57,10.24,10.24,0,0,1,4.12,3.92,22.13,22.13,0,0,1,3,8.66,43.85,43.85,0,0,1,.38,8.62Z"/><path class="cls-17" d="M149,68.8a67.49,67.49,0,0,0-2.66-7.88,28.92,28.92,0,0,0-1.77-3.57,14.4,14.4,0,0,0-2.14-3,3.61,3.61,0,0,0-2.34-1.26,4.32,4.32,0,0,0-.69.06c-.21,0-.49.07-.86.18a11.64,11.64,0,0,0-2.82,1.51c-1.08.72-2.19,1.6-3.58,2.46l-.54-.27a10.2,10.2,0,0,1,.73-4.73,9.16,9.16,0,0,1,3.26-4.19A7.11,7.11,0,0,1,138.68,47a6.55,6.55,0,0,1,3.44.57,10.24,10.24,0,0,1,4.12,3.92,22.32,22.32,0,0,1,3,8.66,43,43,0,0,1,.37,8.61Z"/><path class="cls-9" d="M156.9,73.06a9.31,9.31,0,0,0-4.18-4.44,12,12,0,0,0-2.73-1.2,10.6,10.6,0,0,0-2.77-.57,5.38,5.38,0,0,0-2.46.41,17.24,17.24,0,0,1-1.81.67,7.57,7.57,0,0,0-2.06,1c-.8.52-1.62,1.27-2.71,2.15L137.6,71a6.56,6.56,0,0,1-.4-4.13A7.19,7.19,0,0,1,139.6,63,6.87,6.87,0,0,1,144,61.37a14,14,0,0,1,4.21.79,15.54,15.54,0,0,1,3.53,1.69,16.62,16.62,0,0,1,2.87,2.47,12.82,12.82,0,0,1,2.07,3.1,7.68,7.68,0,0,1,.77,3.56Z"/><path class="cls-9" d="M156.12,60.6a9.33,9.33,0,0,0-4.18-4.45,13,13,0,0,0-2.73-1.2,11,11,0,0,0-2.77-.57,5.45,5.45,0,0,0-2.45.42c-.7.28-1.22.48-1.82.67a7.5,7.5,0,0,0-2.06,1c-.8.53-1.62,1.27-2.71,2.16l-.58-.13a6.53,6.53,0,0,1-.4-4.12,7.12,7.12,0,0,1,2.4-3.91,6.82,6.82,0,0,1,4.44-1.59,14.25,14.25,0,0,1,4.21.79,15.56,15.56,0,0,1,3.53,1.7,16.14,16.14,0,0,1,2.87,2.46,12.53,12.53,0,0,1,2.07,3.1,7.75,7.75,0,0,1,.77,3.57Z"/><path class="cls-9" d="M162.58,89.89a15.81,15.81,0,0,0-3.84-6.12,19.4,19.4,0,0,0-2.65-2.33,15.1,15.1,0,0,0-2.86-1.76,6.16,6.16,0,0,0-2.83-.62c-.84,0-1.29.09-1.76.14a3.69,3.69,0,0,0-2,1c-.83.67-1.65,1.64-2.74,2.7l-.59-.1a7.66,7.66,0,0,1-.45-4.53A6.81,6.81,0,0,1,146,73.83a6.45,6.45,0,0,1,2.91-.94,7.25,7.25,0,0,1,2.76.36,15.11,15.11,0,0,1,4.14,2.36,19.9,19.9,0,0,1,3.1,3,22.75,22.75,0,0,1,2.3,3.45,15.12,15.12,0,0,1,2,7.79Z"/><path class="cls-8" d="M162.85,89.29a65.48,65.48,0,0,0-2.48-7.94,28.08,28.08,0,0,0-1.7-3.63,14.38,14.38,0,0,0-2.14-3.08,4.27,4.27,0,0,0-2.48-1.49,4.37,4.37,0,0,0-2,.27,11.92,11.92,0,0,0-2.85,1.74c-1,.78-2.08,1.72-3.35,2.64l-.45-.22a11,11,0,0,1,1-4.54,9.38,9.38,0,0,1,3.22-4,6.61,6.61,0,0,1,2.9-1.08,6.25,6.25,0,0,1,3.21.51,9.87,9.87,0,0,1,4,3.7,22.51,22.51,0,0,1,3.07,8.48,45,45,0,0,1,.56,8.56Z"/><path class="cls-8" d="M163.57,97.27a63.73,63.73,0,0,0-2.47-7.94,28.12,28.12,0,0,0-1.71-3.63,14.6,14.6,0,0,0-2.13-3.08,4.3,4.3,0,0,0-2.48-1.49,4.37,4.37,0,0,0-2,.27A12.26,12.26,0,0,0,150,83.14c-1,.78-2.09,1.72-3.35,2.64l-.45-.22a11.16,11.16,0,0,1,1-4.54,9.33,9.33,0,0,1,3.23-4A6.75,6.75,0,0,1,153.25,76a6.21,6.21,0,0,1,3.21.51,9.81,9.81,0,0,1,4,3.7,22.17,22.17,0,0,1,3.07,8.48,44.17,44.17,0,0,1,.57,8.56Z"/><path class="cls-9" d="M162.82,83.46A16,16,0,0,0,159,77.34,19.32,19.32,0,0,0,156.32,75a15.42,15.42,0,0,0-2.85-1.77,6.21,6.21,0,0,0-2.84-.61c-.84,0-1.29.08-1.75.13a3.75,3.75,0,0,0-2,1c-.83.68-1.65,1.64-2.74,2.71l-.59-.11a7.65,7.65,0,0,1-.45-4.53,6.87,6.87,0,0,1,3.12-4.44,6.47,6.47,0,0,1,2.91-.93,7.11,7.11,0,0,1,2.77.36A14.92,14.92,0,0,1,156,69.18a20,20,0,0,1,3.1,3,22.27,22.27,0,0,1,2.3,3.45,15.09,15.09,0,0,1,2,7.79Z"/><path class="cls-14" d="M163.27,86.52a66.73,66.73,0,0,0-2.67-7.87,26.36,26.36,0,0,0-1.77-3.57,14.4,14.4,0,0,0-2.14-3,3.53,3.53,0,0,0-2.34-1.26,3.3,3.3,0,0,0-.68.06,7.14,7.14,0,0,0-.87.18A11.48,11.48,0,0,0,150,72.6c-1.08.71-2.19,1.59-3.58,2.45l-.54-.26a10.5,10.5,0,0,1,.73-4.74,9.4,9.4,0,0,1,3.26-4.19,7.09,7.09,0,0,1,3.09-1.16,6.68,6.68,0,0,1,3.44.56,10.24,10.24,0,0,1,4.12,3.92,22.19,22.19,0,0,1,3,8.66,43.85,43.85,0,0,1,.38,8.62Z"/><path class="cls-14" d="M163,93a66.89,66.89,0,0,0-2.67-7.88,27.58,27.58,0,0,0-1.77-3.57,14.4,14.4,0,0,0-2.14-3,3.61,3.61,0,0,0-2.34-1.26,4.32,4.32,0,0,0-.69.06c-.21,0-.48.07-.86.18A11.48,11.48,0,0,0,149.75,79c-1.08.72-2.19,1.6-3.58,2.46l-.54-.27a10.44,10.44,0,0,1,.73-4.73,9.23,9.23,0,0,1,3.26-4.19,7.11,7.11,0,0,1,3.08-1.17,6.55,6.55,0,0,1,3.44.57,10.17,10.17,0,0,1,4.12,3.92,22.15,22.15,0,0,1,3,8.66,43,43,0,0,1,.37,8.61Z"/><path class="cls-9" d="M162.35,87.87a9.27,9.27,0,0,0-4.17-4.45,12.54,12.54,0,0,0-2.74-1.2,10.61,10.61,0,0,0-2.76-.57,5.34,5.34,0,0,0-2.46.41,17.36,17.36,0,0,1-1.82.67,7.57,7.57,0,0,0-2.06,1c-.8.52-1.61,1.27-2.7,2.15l-.59-.12a6.56,6.56,0,0,1-.4-4.13,7.25,7.25,0,0,1,2.4-3.91,6.89,6.89,0,0,1,4.44-1.58,14.25,14.25,0,0,1,4.21.79,15.34,15.34,0,0,1,3.53,1.69,15.9,15.9,0,0,1,2.87,2.47,12.53,12.53,0,0,1,2.07,3.1,7.82,7.82,0,0,1,.78,3.56Z"/><path class="cls-18" d="M71.15,152.68a6.5,6.5,0,0,0,2.71,1.53,19.19,19.19,0,0,0,2.91.67,45.47,45.47,0,0,0,12,.11,17.1,17.1,0,0,0,6-1.8,7,7,0,0,1-2,2.91,12.12,12.12,0,0,1-3,1.91,17.8,17.8,0,0,1-13.79-.14,11,11,0,0,1-3-2A5,5,0,0,1,71.15,152.68Z"/><rect class="cls-3" x="60.53" y="298" width="10.99" height="2" transform="translate(7.43 -1.54) rotate(1.42)"/><path class="cls-2" d="M101.49,303.1V291.58c0-1.42,1.59-2.53,3.56-2.47l3.77.12c2,.06,3.63,1.28,3.63,2.73v11.47c0,1.42-1.6,2.53-3.56,2.47l-3.85-.12C103.08,305.72,101.49,304.52,101.49,303.1Z"/><ellipse class="cls-3" cx="108.06" cy="296.19" rx="2.28" ry="4.81" transform="translate(-190.72 396.88) rotate(-88.58)"/><path class="cls-2" d="M112.83,296.1,103,296c-.36,0-.64.17-.63.39l.22,5.23c0,.21.31.39.66.39l9.8.08c.35,0,.63-.17.62-.39l-.22-5.23C113.48,296.28,113.19,296.1,112.83,296.1Z"/><rect class="cls-3" x="102.53" y="298" width="10.99" height="2" transform="translate(7.44 -2.59) rotate(1.42)"/><ellipse class="cls-7" cx="14.03" cy="140.98" rx="9.14" ry="2.49" transform="translate(-127.43 133.07) rotate(-81.12)"/><ellipse class="cls-7" cx="7.9" cy="143.54" rx="2.49" ry="9.14" transform="translate(-7.07 0.56) rotate(-2.83)"/><circle class="cls-6" cx="11.44" cy="152.05" r="8.48"/><path class="cls-4" d="M141.61,181c-18.38,11.53-40.56-12.06-33.71,5,1,3,0,2,2,7l3,18c5.91.15,24.71-12,35.71-12,7.07,0,13-32,16-37,2.57-4.29-6,.44-8,0C147.61,160,158.42,170.45,141.61,181Z"/><ellipse class="cls-7" cx="155.48" cy="138.98" rx="2.49" ry="9.14" transform="translate(-19.59 25.67) rotate(-8.88)"/><circle class="cls-6" cx="158.06" cy="150.05" r="8.48"/><path class="cls-19" d="M120.72,102.31a25.33,25.33,0,0,0-6.25-3.59,20.79,20.79,0,0,0-6.88-1.52,21.78,21.78,0,0,0-6.8,1,20.65,20.65,0,0,0-6.28,3.1l-.15-.13a11.46,11.46,0,0,1,5.77-4.86,15.15,15.15,0,0,1,7.6-.69,22.24,22.24,0,0,1,7.16,2.2,24,24,0,0,1,6,4.35Z"/><path class="cls-19" d="M116.39,107.54a15.08,15.08,0,0,0-9.28-3.89,10.56,10.56,0,0,0-8.25,3.29c-1,1.07.61,2.66,1.59,1.59,3.88-4.26,10.44-2.81,14.35.61,1.09,1,2.68-.64,1.59-1.6Z"/><path class="cls-19" d="M70.72,101.31a25.33,25.33,0,0,0-6.25-3.59,20.79,20.79,0,0,0-6.88-1.52,21.78,21.78,0,0,0-6.8,1,20.65,20.65,0,0,0-6.28,3.1l-.15-.13a11.46,11.46,0,0,1,5.77-4.86,15.15,15.15,0,0,1,7.6-.69,22.24,22.24,0,0,1,7.16,2.2,24,24,0,0,1,6,4.35Z"/><path class="cls-19" d="M66.92,106.23a15.09,15.09,0,0,0-9.27-3.9,10.59,10.59,0,0,0-8.26,3.3c-1,1.06.62,2.66,1.6,1.59,3.88-4.26,10.43-2.81,14.34.6,1.09,1,2.69-.63,1.59-1.59Z"/></g></g></svg>